<svg xmlns="http://www.w3.org/2000/svg" width="48" height="48" fill="none"><path fill="#E34F26" d="M6.656 43.125 2.813 0h42.28L41.25 43.125 23.906 48"/><path fill="#EF652A" d="m24 44.25 13.969-3.844L41.25 3.47H24"/><path fill="#EBEBEB" d="M24 19.5h-7.031l-.469-5.438H24v-5.25H10.687l1.407 16.032H24V19.5zm-.094 13.781L18 31.688l-.375-4.22h-5.25l.656 8.345 10.875 3V33.28z"/><path fill="#fff" d="M23.906 19.5v5.344h6.563l-.657 6.843-5.906 1.594v5.532l10.875-3 1.5-16.313H23.906zm0-10.688v5.25H36.75l.469-5.25H23.906z"/></svg>