<svg viewBox="0 0 64 64" xmlns:xlink="http://www.w3.org/1999/xlink" xmlns="http://www.w3.org/2000/svg" width="24" height="24" fill="none"><g clip-path="url(#a)"><path fill="#00005B" d="M11.333 0h41.334A11.324 11.324 0 0 1 64 11.333v41.334A11.324 11.324 0 0 1 52.667 64H11.333A11.324 11.324 0 0 1 0 52.667V11.333A11.324 11.324 0 0 1 11.333 0z"/><path fill="#99F" d="M25.707 37.335h-9.92l-2.027 6.293a.467.467 0 0 1-.506.373H8.24c-.294 0-.374-.16-.294-.48l8.587-24.613c.08-.267.16-.507.267-.827.106-.56.16-1.146.16-1.733-.027-.133.08-.267.213-.293h6.906c.187 0 .32.08.347.213l9.733 27.333c.08.294 0 .427-.266.427H28.32c-.187.027-.374-.107-.427-.293l-2.187-6.4zm-8.373-5.307h6.773c-.16-.56-.373-1.227-.613-1.92-.24-.72-.48-1.493-.72-2.293-.267-.827-.507-1.627-.774-2.454a59.62 59.62 0 0 1-.72-2.373c-.213-.747-.4-1.44-.586-2.08h-.053a32.72 32.72 0 0 1-.907 3.44c-.4 1.28-.8 2.613-1.227 3.947-.347 1.36-.773 2.613-1.173 3.733zm32.64 2.852h-8.453c.106.828.373 1.654.826 2.374.48.72 1.147 1.28 1.947 1.6a8.294 8.294 0 0 0 3.414.667c.933-.027 1.866-.107 2.773-.293a9.997 9.997 0 0 0 2.373-.614c.133-.106.214-.053.214.214v4.08c0 .106-.027.213-.054.32a.623.623 0 0 1-.187.186c-.853.374-1.733.64-2.666.8-1.254.24-2.507.347-3.787.32-2.027 0-3.733-.32-5.12-.933a8.98 8.98 0 0 1-3.36-2.533 9.787 9.787 0 0 1-1.84-3.494 13.612 13.612 0 0 1-.56-3.893c0-1.44.214-2.853.667-4.24a10.882 10.882 0 0 1 2-3.653 9.663 9.663 0 0 1 3.227-2.534c1.253-.613 2.746-.826 4.453-.826a9.632 9.632 0 0 1 4.133.826 7.344 7.344 0 0 1 2.8 2.134c.694.906 1.254 1.92 1.6 3.04.347 1.066.507 2.16.507 3.253 0 .64-.027 1.2-.053 1.707-.054.506-.08.88-.107 1.12-.027.186-.187.346-.373.346-.16 0-.454.027-.88.054-.427.053-.934.08-1.547.08-.614 0-1.254-.107-1.947-.107zm-8.453-3.892h5.627c.693 0 1.2 0 1.52-.027.213-.027.426-.08.613-.213v-.267a3.06 3.06 0 0 0-.16-.987 3.53 3.53 0 0 0-3.467-2.453 3.755 3.755 0 0 0-3.547 2.027 5.527 5.527 0 0 0-.586 1.92z"/></g><defs><clipPath id="a"><path fill="#fff" d="M0 0h64v64H0z"/></clipPath></defs></svg>