<svg xmlns:xlink="http://www.w3.org/1999/xlink" xmlns="http://www.w3.org/2000/svg" width="66" height="66" fill="none"><path fill="#fff" d="M7.185 49.417C5.12 49.417 3 51.074 3 53.975 3 56.627 4.865 58.5 7.185 58.5c1.914 0 2.767-1.288 2.767-1.288v.561c0 .266.25.562.56.562h1.384v-8.72H9.952v1.106s-.86-1.304-2.767-1.304zM7.53 51.2c1.698 0 2.59 1.497 2.59 2.774 0 1.423-1.059 2.774-2.587 2.774-1.277 0-2.556-1.037-2.556-2.792 0-1.585 1.1-2.756 2.553-2.756zm7.068 7.134a.545.545 0 0 1-.56-.561v-8.158h1.944v1.079c.44-.664 1.301-1.28 2.622-1.28 2.16 0 3.309 1.725 3.309 3.338v5.582h-1.351a.596.596 0 0 1-.593-.594v-4.558c0-.894-.547-1.98-1.81-1.98-1.365 0-2.177 1.292-2.177 2.508v4.624h-1.384zm12.982-8.917c-2.063 0-4.184 1.657-4.184 4.558 0 2.652 1.865 4.525 4.184 4.525 1.915 0 2.768-1.288 2.768-1.288v.561c0 .266.25.562.56.562h1.384v-13.08h-1.944v5.466s-.86-1.304-2.768-1.304zm.346 1.783c1.699 0 2.59 1.497 2.59 2.774 0 1.423-1.058 2.774-2.586 2.774-1.277 0-2.557-1.037-2.557-2.792 0-1.585 1.101-2.756 2.553-2.756zm7.067 7.135a.545.545 0 0 1-.56-.562v-8.158h1.944v1.453c.335-.814 1.057-1.552 2.34-1.552.357 0 .692.066.692.066v2.015s-.418-.165-.923-.165c-1.364 0-2.109 1.292-2.109 2.508v4.395h-1.384zm16.211 0a.545.545 0 0 1-.56-.562v-8.158h1.944v8.72h-1.384zm7.084-8.918c-2.063 0-4.184 1.657-4.184 4.558 0 2.652 1.865 4.525 4.184 4.525 1.915 0 2.768-1.288 2.768-1.288v.561c0 .266.25.562.56.562H63v-13.08h-1.944v5.466s-.86-1.304-2.768-1.304zm.347 1.783c1.698 0 2.589 1.497 2.589 2.774 0 1.423-1.058 2.774-2.586 2.774-1.277 0-2.556-1.037-2.556-2.792 0-1.585 1.1-2.756 2.553-2.756zm-7.034-3.466a1.288 1.288 0 0 0 0-2.577 1.288 1.288 0 0 0 0 2.578zm-7.066 1.68c-2.16 0-4.534 1.617-4.534 4.545 0 2.67 2.022 4.541 4.53 4.541 3.09 0 4.6-2.49 4.6-4.524 0-2.495-1.944-4.562-4.596-4.562zm.008 1.82c1.494 0 2.608 1.207 2.608 2.73 0 1.551-1.183 2.748-2.604 2.748-1.32 0-2.602-1.077-2.602-2.721 0-1.672 1.22-2.757 2.597-2.757z"/><path fill="#32DE84" d="m47.644 16.155 4.974-8.637c.28-.484.11-1.099-.366-1.38a.996.996 0 0 0-1.37.366l-5.04 8.748c-3.844-1.76-8.172-2.741-12.826-2.741s-8.981.981-12.826 2.741l-5.04-8.748a1.009 1.009 0 1 0-1.743 1.014l4.975 8.637c-8.577 4.66-14.386 13.361-15.346 23.55h59.96c-.96-10.188-6.769-18.89-15.352-23.55zM19.25 31.264a2.517 2.517 0 0 1-2.513-2.52 2.518 2.518 0 0 1 2.513-2.519 2.517 2.517 0 0 1 2.513 2.52 2.513 2.513 0 0 1-2.513 2.519zm27.526 0a2.517 2.517 0 0 1-2.513-2.52 2.517 2.517 0 0 1 2.513-2.519 2.517 2.517 0 0 1 2.513 2.52 2.513 2.513 0 0 1-2.513 2.519z"/></svg>