<svg xmlns:xlink="http://www.w3.org/1999/xlink" xmlns="http://www.w3.org/2000/svg" width="226" height="110" fill="none"><path fill="#fff" d="M197.891 65.18c-.293 0-.553.197-.683.587-1.769 5.036-4.157 8.041-6.121 8.041-1.129 0-1.585-1.258-1.585-3.234 0-4.926 2.963-15.387 4.439-20.163a5.188 5.188 0 0 0 .293-1.53c0-1.389-.76-2.072-2.637-2.072-1.878 0-4.211.803-6.316 4.514-.738-3.277-2.952-4.71-6.045-4.71-3.57 0-7.021 2.3-9.865 6.023-2.842 3.722-6.174 4.96-8.692 4.352 1.812-4.417 2.475-7.727 2.475-10.18 0-3.852-1.899-6.174-4.97-6.174-4.679 0-7.37 4.46-7.37 9.148 0 3.625 1.64 7.358 5.264 9.17-3.028 6.848-7.455 13.045-9.137 13.045-2.171 0-2.812-10.614-2.681-18.21.064-4.352.434-4.58.434-5.904 0-.749-.499-1.27-2.464-1.27-4.589 0-6.022 3.896-6.229 8.367a23.06 23.06 0 0 1-.792 5.014c-1.931 6.858-5.881 12.057-8.465 12.057-1.204 0-1.518-1.205-1.518-2.767 0-4.927 2.756-11.102 2.756-16.355 0-3.874-1.693-6.316-4.895-6.316-3.754 0-8.736 4.482-13.445 12.86 1.551-6.414 2.181-12.632-2.399-12.632a6.264 6.264 0 0 0-2.854.738c-.629.326-.966.912-.922 1.563.434 6.847-5.513 24.352-11.156 24.352-1.031 0-1.52-1.107-1.52-2.908 0-4.928 2.941-15.367 4.417-20.153.18-.52.279-1.066.293-1.617 0-1.302-.803-1.975-2.637-1.975-2.018 0-4.2.77-6.316 4.482-.738-3.277-2.952-4.71-6.034-4.71-5.068 0-10.743 5.361-13.228 12.36-3.332 9.334-10.05 18.341-19.09 18.341-8.203 0-12.533-6.826-12.533-17.602 0-15.584 11.438-28.303 19.913-28.303 4.059 0 5.99 2.583 5.99 6.544 0 4.797-2.67 7.022-2.67 8.845 0 .553.457 1.107 1.38 1.107 3.689 0 8.019-4.33 8.019-10.234 0-5.903-4.786-10.233-13.272-10.233-14.01 0-28.118 14.107-28.118 32.176 0 14.38 7.097 23.05 19.36 23.05 8.367 0 15.681-6.5 19.632-14.108.444 6.305 3.299 9.583 7.65 9.583 3.874 0 7.01-2.301 9.41-6.36.922 4.244 3.363 6.328 6.543 6.328 3.646 0 6.685-2.313 9.582-6.6-.043 3.365.728 6.534 3.647 6.534 1.378 0 3.027-.314 3.32-1.519 3.061-12.708 10.668-23.083 12.991-23.083.683 0 .868.651.868 1.444 0 3.45-2.432 10.526-2.432 15.04 0 4.894 2.074 8.118 6.361 8.118 4.752 0 9.581-5.817 12.805-14.325 1.009 7.944 3.19 14.357 6.587 14.357 4.188 0 11.623-8.8 16.126-18.133 1.758.228 4.417.173 6.957-1.628-1.075 2.745-1.715 5.752-1.715 8.747 0 8.66 4.123 11.08 7.683 11.08 3.874 0 7.01-2.301 9.409-6.36.792 3.657 2.81 6.316 6.533 6.316 5.816 0 10.873-5.947 10.873-10.83 0-1.29-.553-2.084-1.204-2.084zM77.107 73.353c-2.355 0-3.278-2.376-3.278-5.903 0-6.12 4.19-16.365 8.628-16.365 1.932 0 2.67 2.29 2.67 5.08 0 6.218-3.983 17.189-8.02 17.189zm80.501-18.296c-1.4-1.671-1.91-3.95-1.91-5.968 0-2.496.912-4.602 2.008-4.602 1.095 0 1.421 1.075 1.421 2.572 0 2.496-.889 6.164-1.519 7.998zm18.221 18.297c-2.344 0-3.267-2.724-3.267-5.904 0-5.914 4.189-16.365 8.661-16.365 1.931 0 2.625 2.258 2.625 5.08 0 6.218-3.917 17.189-8.019 17.189z"/></svg>