<svg xmlns="http://www.w3.org/2000/svg" width="66" height="66" fill="none"><g clip-path="url(#a)"><path fill="#F7DF1E" d="M63 3H3v60h60V3z"/><path fill="#000" d="M43.303 49.875c1.21 1.973 2.782 3.423 5.562 3.423 2.337 0 3.829-1.167 3.829-2.78 0-1.934-1.533-2.619-4.105-3.743l-1.41-.605c-4.068-1.733-6.77-3.905-6.77-8.495 0-4.229 3.221-7.448 8.256-7.448 3.585 0 6.162 1.248 8.02 4.514l-4.391 2.82c-.967-1.734-2.01-2.417-3.629-2.417-1.651 0-2.698 1.048-2.698 2.416 0 1.692 1.048 2.377 3.467 3.424l1.41.604c4.79 2.054 7.495 4.149 7.495 8.857 0 5.076-3.988 7.857-9.343 7.857-5.236 0-8.62-2.495-10.274-5.765l4.581-2.662zm-19.917.488c.886 1.572 1.692 2.9 3.629 2.9 1.852 0 3.02-.724 3.02-3.543V30.55h5.639v19.248c0 5.838-3.423 8.495-8.419 8.495-4.514 0-7.129-2.336-8.458-5.15l4.59-2.779z"/></g><defs><clipPath id="a"><rect width="60" height="60" x="3" y="3" fill="#fff" rx="6"/></clipPath></defs></svg>