<svg xmlns="http://www.w3.org/2000/svg" width="66" height="66" fill="none"><path fill="#fff" d="M57.431 49.758c-.915 2.096-2 4.026-3.255 5.8-1.712 2.419-3.113 4.093-4.193 5.022-1.675 1.526-3.469 2.308-5.39 2.352-1.379 0-3.042-.389-4.978-1.178-1.942-.785-3.727-1.174-5.36-1.174-1.711 0-3.547.389-5.51 1.174-1.967.789-3.551 1.2-4.762 1.24-1.843.079-3.679-.725-5.512-2.414-1.17-1.011-2.633-2.744-4.385-5.2-1.881-2.622-3.427-5.663-4.638-9.13C8.15 42.508 7.5 38.88 7.5 35.37c0-4.02.877-7.488 2.633-10.395 1.38-2.334 3.216-4.176 5.514-5.527 2.298-1.352 4.782-2.041 7.456-2.085 1.463 0 3.382.448 5.766 1.33 2.378.884 3.904 1.333 4.574 1.333.5 0 2.196-.525 5.072-1.57 2.718-.97 5.013-1.371 6.893-1.213 5.094.407 8.921 2.397 11.466 5.982-4.556 2.736-6.81 6.567-6.764 11.482.04 3.829 1.442 7.014 4.197 9.544a13.805 13.805 0 0 0 4.193 2.726 44.573 44.573 0 0 1-1.069 2.781zM45.748 4.2c0 3.001-1.106 5.803-3.311 8.396-2.661 3.083-5.88 4.864-9.37 4.583a9.253 9.253 0 0 1-.07-1.137c0-2.88 1.265-5.963 3.512-8.484 1.122-1.276 2.55-2.337 4.28-3.184 1.726-.834 3.36-1.295 4.896-1.374.044.401.063.802.063 1.2z"/></svg>