<svg xmlns:xlink="http://www.w3.org/1999/xlink" xmlns="http://www.w3.org/2000/svg" viewBox="0 0 256 256" focusable="false" color="var(--token-28271497-f7dc-421f-a662-9d90d3ddd6d1, rgb(255, 255, 255))" style="user-select: none; width: 100%; height: 100%; display: inline-block; fill: var(--token-28271497-f7dc-421f-a662-9d90d3ddd6d1, rgb(255, 255, 255)); color: var(--token-28271497-f7dc-421f-a662-9d90d3ddd6d1, rgb(255, 255, 255)); flex-shrink: 0;" width="24"  height="24" ><g color="var(--token-28271497-f7dc-421f-a662-9d90d3ddd6d1, rgb(255, 255, 255))" weight="regular" fill="#FFFFFF"><path d="M208,104V40a8,8,0,0,0-8-8H56a8,8,0,0,0-5.31,14L107,96H56a8,8,0,0,0-8,8v64a8,8,0,0,0,2.34,5.66l72,72A8,8,0,0,0,136,240V176h64a8,8,0,0,0,5.31-14L149,112h51A8,8,0,0,0,208,104Zm-29,56H128a8,8,0,0,0-8,8v52.69l-56-56V112h61Zm13-64H131L77,48H192Z" fill="#FFFFFF"></path></g></svg>