<svg viewBox="0 0 57 56" xmlns:xlink="http://www.w3.org/1999/xlink" xmlns="http://www.w3.org/2000/svg" width="24" height="23.58" fill="none"><path fill="#1ABCFE" d="M28.968 28a9.333 9.333 0 1 1 18.666 0 9.333 9.333 0 0 1-18.666 0z"/><path fill="#0ACF83" d="M10.3 46.666a9.333 9.333 0 0 1 9.334-9.333h9.333v9.334a9.333 9.333 0 1 1-18.666 0z"/><path fill="#FF7262" d="M28.968 0v18.667H38.3A9.333 9.333 0 1 0 38.3 0h-9.334z"/><path fill="#F24E1E" d="M10.3 9.333a9.333 9.333 0 0 0 9.334 9.334h9.333V0h-9.333A9.333 9.333 0 0 0 10.3 9.333z"/><path fill="#A259FF" d="M10.3 28a9.333 9.333 0 0 0 9.334 9.333h9.333V18.666h-9.333A9.333 9.333 0 0 0 10.3 28z"/></svg>