<svg xmlns="http://www.w3.org/2000/svg" width="308" height="556" fill="none"><g clip-path="url(#a)"><g clip-path="url(#b)"><g filter="url(#c)" shape-rendering="crispEdges"><path fill="url(#d)" fill-opacity=".12" d="m258.52 573.529-50.441-59.013a3.86 3.86 0 0 0-2.936-1.353H103.21a3.864 3.864 0 0 1-2.729-1.13l-80.62-80.552a3.861 3.861 0 0 1-1.133-2.732v-92.277a3.861 3.861 0 0 0-1.133-2.732l-83.448-83.377c-2.433-2.431-6.592-.708-6.592 2.733v322.942a3.862 3.862 0 0 0 3.863 3.862h324.166c3.298 0 5.079-3.865 2.936-6.371z"/><path fill="url(#e)" fill-opacity=".04" d="m258.52 573.529-50.441-59.013a3.86 3.86 0 0 0-2.936-1.353H103.21a3.864 3.864 0 0 1-2.729-1.13l-80.62-80.552a3.861 3.861 0 0 1-1.133-2.732v-92.277a3.861 3.861 0 0 0-1.133-2.732l-83.448-83.377c-2.433-2.431-6.592-.708-6.592 2.733v322.942a3.862 3.862 0 0 0 3.863 3.862h324.166c3.298 0 5.079-3.865 2.936-6.371z"/></g><g fill-rule="evenodd" clip-rule="evenodd" filter="url(#f)" shape-rendering="crispEdges"><path fill="#35FEB7" fill-opacity=".16" d="m210.118 512.773 50.441 59.013c3.63 4.247.612 10.796-4.975 10.796H-68.583a6.544 6.544 0 0 1-6.544-6.544V253.095c0-5.829 7.046-8.749 11.17-4.629l83.448 83.376a6.546 6.546 0 0 1 1.919 4.63v92.277c0 .313.124.613.346.834l80.62 80.552c.221.221.521.345.834.345h101.933c1.914 0 3.731.838 4.975 2.293zm-2.039 1.742 50.441 59.013c2.142 2.507.361 6.372-2.936 6.372H-68.583a3.862 3.862 0 0 1-3.862-3.862V253.095c0-3.44 4.159-5.164 6.592-2.732l83.448 83.376a3.865 3.865 0 0 1 1.133 2.733v92.277c0 1.025.407 2.007 1.132 2.732l80.62 80.551a3.862 3.862 0 0 0 2.73 1.13h101.933c1.129 0 2.202.495 2.936 1.353z"/><path fill="url(#g)" d="m210.118 512.773 50.441 59.013c3.63 4.247.612 10.796-4.975 10.796H-68.583a6.544 6.544 0 0 1-6.544-6.544V253.095c0-5.829 7.046-8.749 11.17-4.629l83.448 83.376a6.546 6.546 0 0 1 1.919 4.63v92.277c0 .313.124.613.346.834l80.62 80.552c.221.221.521.345.834.345h101.933c1.914 0 3.731.838 4.975 2.293zm-2.039 1.742 50.441 59.013c2.142 2.507.361 6.372-2.936 6.372H-68.583a3.862 3.862 0 0 1-3.862-3.862V253.095c0-3.44 4.159-5.164 6.592-2.732l83.448 83.376a3.865 3.865 0 0 1 1.133 2.733v92.277c0 1.025.407 2.007 1.132 2.732l80.62 80.551a3.862 3.862 0 0 0 2.73 1.13h101.933c1.129 0 2.202.495 2.936 1.353z"/></g><g fill-rule="evenodd" clip-rule="evenodd" filter="url(#h)"><path fill="#61F7CF" fill-opacity=".16" d="M84.394 195.517c.52-.509.528-1.342.02-1.862L-.868 106.597a8.27 8.27 0 0 0-5.907-2.483h-21.674a8.27 8.27 0 0 0-6.28 2.89l-14.438 16.853a1.316 1.316 0 1 0 2 1.712l14.438-16.853a5.637 5.637 0 0 1 4.28-1.969h21.674c1.515 0 2.966.61 4.026 1.692l85.28 87.058c.51.52 1.343.528 1.862.02z"/><path fill="url(#i)" d="M84.394 195.517c.52-.509.528-1.342.02-1.862L-.868 106.597a8.27 8.27 0 0 0-5.907-2.483h-21.674a8.27 8.27 0 0 0-6.28 2.89l-14.438 16.853a1.316 1.316 0 1 0 2 1.712l14.438-16.853a5.637 5.637 0 0 1 4.28-1.969h21.674c1.515 0 2.966.61 4.026 1.692l85.28 87.058c.51.52 1.343.528 1.862.02z"/></g><g fill-opacity=".32" filter="url(#j)"><path fill="#D6FEF1" d="M19.744 136.932a5.923 5.923 0 0 1 11.846 0 5.923 5.923 0 0 1-11.846 0z"/><path fill="url(#k)" d="M19.744 136.932a5.923 5.923 0 0 1 11.846 0 5.923 5.923 0 0 1-11.846 0z"/></g><g filter="url(#l)"><path fill="url(#m)" fill-rule="evenodd" d="M21.52 136.932a4.146 4.146 0 1 0 8.292 0 4.146 4.146 0 0 0-8.291 0zm4.147-5.923a5.923 5.923 0 1 0 0 11.846 5.923 5.923 0 0 0 0-11.846z" clip-rule="evenodd"/></g><g filter="url(#n)"><path fill="#002B2B" d="M95.7 193.264c0 6.908-5.605 12.508-12.519 12.508s-12.518-5.6-12.518-12.508c0-6.908 5.604-12.508 12.518-12.508 6.914 0 12.519 5.6 12.519 12.508z"/><path fill="#00DDB3" fill-opacity=".32" d="M95.7 193.264c0 6.908-5.605 12.508-12.519 12.508s-12.518-5.6-12.518-12.508c0-6.908 5.604-12.508 12.518-12.508 6.914 0 12.519 5.6 12.519 12.508z"/><path fill="url(#o)" d="M95.7 193.264c0 6.908-5.605 12.508-12.519 12.508s-12.518-5.6-12.518-12.508c0-6.908 5.604-12.508 12.518-12.508 6.914 0 12.519 5.6 12.519 12.508z"/></g><g fill-rule="evenodd" clip-rule="evenodd" filter="url(#p)"><path fill="#61F7CF" fill-opacity=".16" d="M202.428 380.634a1.317 1.317 0 0 1 1.862 0l21.905 21.905a8.268 8.268 0 0 1 2.422 5.847v54.469a8.27 8.27 0 0 1-8.27 8.269h-62.751a1.316 1.316 0 1 1 0-2.632h62.751a5.637 5.637 0 0 0 5.637-5.637v-54.469a5.637 5.637 0 0 0-1.651-3.986l-21.905-21.905a1.316 1.316 0 0 1 0-1.861z"/><path fill="url(#q)" d="M202.428 380.634a1.317 1.317 0 0 1 1.862 0l21.905 21.905a8.268 8.268 0 0 1 2.422 5.847v54.469a8.27 8.27 0 0 1-8.27 8.269h-62.751a1.316 1.316 0 1 1 0-2.632h62.751a5.637 5.637 0 0 0 5.637-5.637v-54.469a5.637 5.637 0 0 0-1.651-3.986l-21.905-21.905a1.316 1.316 0 0 1 0-1.861z"/></g><g fill-rule="evenodd" clip-rule="evenodd" filter="url(#r)"><path fill="#61F7CF" fill-opacity=".16" d="M202.099 341.335a1.317 1.317 0 0 1 1.862 0l22.233 22.233a8.272 8.272 0 0 1 2.423 5.848v93.439a8.27 8.27 0 0 1-8.27 8.27h-62.398a1.317 1.317 0 0 1 0-2.633h62.398a5.637 5.637 0 0 0 5.637-5.637v-93.439a5.637 5.637 0 0 0-1.651-3.986l-22.234-22.234a1.316 1.316 0 0 1 0-1.861z"/><path fill="url(#s)" d="M202.099 341.335a1.317 1.317 0 0 1 1.862 0l22.233 22.233a8.272 8.272 0 0 1 2.423 5.848v93.439a8.27 8.27 0 0 1-8.27 8.27h-62.398a1.317 1.317 0 0 1 0-2.633h62.398a5.637 5.637 0 0 0 5.637-5.637v-93.439a5.637 5.637 0 0 0-1.651-3.986l-22.234-22.234a1.316 1.316 0 0 1 0-1.861z"/></g><g fill-opacity=".32" filter="url(#t)"><path fill="#D6FEF1" d="M151.2 469.389a6.035 6.035 0 0 1 12.07 0 6.034 6.034 0 0 1-6.035 6.034 6.034 6.034 0 0 1-6.035-6.034z"/><path fill="url(#u)" d="M151.2 469.389a6.035 6.035 0 0 1 12.07 0 6.034 6.034 0 0 1-6.035 6.034 6.034 6.034 0 0 1-6.035-6.034z"/></g><g filter="url(#v)"><path fill="url(#w)" fill-rule="evenodd" d="M153.011 469.389a4.224 4.224 0 1 0 8.448 0 4.224 4.224 0 0 0-8.448 0zm4.224-6.035a6.035 6.035 0 1 0 0 12.07 6.035 6.035 0 0 0 0-12.07z" clip-rule="evenodd"/></g><g filter="url(#x)"><path fill="#00DDB3" fill-opacity=".32" d="M186.954 321.822h16.058v29.103h-16.058v-29.103z"/><path fill="url(#y)" d="M186.954 321.822h16.058v29.103h-16.058v-29.103z"/></g><path fill="#000" d="M189.569 326.673h10.829v4.477h-10.829v-4.477zm0 7.462h10.829v4.478h-10.829v-4.478zm0 7.463h10.829v4.477h-10.829v-4.477z"/><g filter="url(#z)"><path fill="#00DDB3" fill-opacity=".32" d="M186.954 366.969h16.058v29.103h-16.058v-29.103z"/><path fill="url(#A)" d="M186.954 366.969h16.058v29.103h-16.058v-29.103z"/></g><path fill="#000" d="M189.568 371.819h10.829v4.477h-10.829v-4.477zm0 7.462h10.829v4.478h-10.829v-4.478zm0 7.463h10.829v4.477h-10.829v-4.477z"/><g filter="url(#B)"><path fill="#00DDB3" fill-opacity=".32" d="M75.671 321.822H91.73v29.103H75.67v-29.103z"/><path fill="url(#C)" d="M75.671 321.822H91.73v29.103H75.67v-29.103z"/></g><path fill="#000" d="M78.286 326.673h10.83v4.477h-10.83v-4.477zm0 7.462h10.83v4.478h-10.83v-4.478zm0 7.463h10.83v4.477h-10.83v-4.477z"/><g filter="url(#D)"><path fill="#00DDB3" fill-opacity=".32" d="M75.671 366.969H91.73v29.103H75.67v-29.103z"/><path fill="url(#E)" d="M75.671 366.969H91.73v29.103H75.67v-29.103z"/></g><path fill="#000" d="M78.286 371.819h10.83v4.477h-10.83v-4.477zm0 7.462h10.83v4.478h-10.83v-4.478zm0 7.463h10.83v4.477h-10.83v-4.477z"/><g fill-opacity=".04" filter="url(#F)" shape-rendering="crispEdges"><path fill="url(#G)" d="M94.769 313.808a3.79 3.79 0 0 1 3.79-3.79h81.924a3.79 3.79 0 0 1 3.79 3.79v88.504a3.79 3.79 0 0 1-3.79 3.791H98.56a3.79 3.79 0 0 1-3.791-3.791v-88.504z"/><path fill="url(#H)" d="M94.769 313.808a3.79 3.79 0 0 1 3.79-3.79h81.924a3.79 3.79 0 0 1 3.79 3.79v88.504a3.79 3.79 0 0 1-3.79 3.791H98.56a3.79 3.79 0 0 1-3.791-3.791v-88.504z"/></g><g fill-rule="evenodd" clip-rule="evenodd" filter="url(#I)" shape-rendering="crispEdges"><path fill="#35FEB7" fill-opacity=".16" d="M98.56 307.385h81.923a6.423 6.423 0 0 1 6.423 6.423v88.504a6.423 6.423 0 0 1-6.423 6.423H98.56a6.423 6.423 0 0 1-6.423-6.423v-88.504a6.423 6.423 0 0 1 6.423-6.423zm0 2.632a3.79 3.79 0 0 0-3.79 3.791v88.504a3.79 3.79 0 0 0 3.79 3.791h81.923a3.79 3.79 0 0 0 3.79-3.791v-88.504a3.79 3.79 0 0 0-3.79-3.791H98.56z"/><path fill="url(#J)" d="M98.56 307.385h81.923a6.423 6.423 0 0 1 6.423 6.423v88.504a6.423 6.423 0 0 1-6.423 6.423H98.56a6.423 6.423 0 0 1-6.423-6.423v-88.504a6.423 6.423 0 0 1 6.423-6.423zm0 2.632a3.79 3.79 0 0 0-3.79 3.791v88.504a3.79 3.79 0 0 0 3.79 3.791h81.923a3.79 3.79 0 0 0 3.79-3.791v-88.504a3.79 3.79 0 0 0-3.79-3.791H98.56z"/></g><g fill-opacity=".04" filter="url(#K)" shape-rendering="crispEdges"><path fill="url(#L)" d="m-4.619 156.736 67.458 67.4a3.86 3.86 0 0 0 2.73 1.13h50.12a3.862 3.862 0 0 1 3.862 3.863v59.49a3.862 3.862 0 0 1-3.862 3.862H70.758a3.862 3.862 0 0 0-3.862 3.862v106.588c0 1.025.407 2.008 1.132 2.733l15.289 15.275a3.86 3.86 0 0 0 2.73 1.13h65.233a3.863 3.863 0 0 1 3.863 3.862v58.526a3.863 3.863 0 0 1-3.863 3.862h-30.13a3.862 3.862 0 0 1-2.73-1.13l-69.406-69.347a3.861 3.861 0 0 1-1.133-2.732v-85.945a3.865 3.865 0 0 0-1.132-2.732l-83.057-82.986a3.861 3.861 0 0 1-1.132-2.732v-81.247a3.862 3.862 0 0 1 3.862-3.862h26.23a3.86 3.86 0 0 1 2.73 1.13z"/><path fill="url(#M)" d="m-4.619 156.736 67.458 67.4a3.86 3.86 0 0 0 2.73 1.13h50.12a3.862 3.862 0 0 1 3.862 3.863v59.49a3.862 3.862 0 0 1-3.862 3.862H70.758a3.862 3.862 0 0 0-3.862 3.862v106.588c0 1.025.407 2.008 1.132 2.733l15.289 15.275a3.86 3.86 0 0 0 2.73 1.13h65.233a3.863 3.863 0 0 1 3.863 3.862v58.526a3.863 3.863 0 0 1-3.863 3.862h-30.13a3.862 3.862 0 0 1-2.73-1.13l-69.406-69.347a3.861 3.861 0 0 1-1.133-2.732v-85.945a3.865 3.865 0 0 0-1.132-2.732l-83.057-82.986a3.861 3.861 0 0 1-1.132-2.732v-81.247a3.862 3.862 0 0 1 3.862-3.862h26.23a3.86 3.86 0 0 1 2.73 1.13z"/></g><g fill-rule="evenodd" clip-rule="evenodd" filter="url(#N)" shape-rendering="crispEdges"><path fill="#35FEB7" fill-opacity=".16" d="m-2.722 154.839 67.458 67.4c.22.221.52.345.834.345h50.12a6.544 6.544 0 0 1 6.544 6.544v59.491a6.544 6.544 0 0 1-6.544 6.544H70.758a1.18 1.18 0 0 0-1.18 1.18v106.588c0 .314.125.614.346.835l15.289 15.276-1.896 1.897-15.288-15.276a3.861 3.861 0 0 1-1.133-2.732V296.343a3.862 3.862 0 0 1 3.862-3.862h44.932a3.862 3.862 0 0 0 3.862-3.862v-59.491a3.862 3.862 0 0 0-3.862-3.862H65.57a3.86 3.86 0 0 1-2.73-1.13l-67.458-67.4a3.86 3.86 0 0 0-2.73-1.13h-26.23a3.862 3.862 0 0 0-3.862 3.862v81.247a3.86 3.86 0 0 0 1.132 2.732l83.057 82.986a3.864 3.864 0 0 1 1.133 2.732v85.945c0 1.025.407 2.007 1.132 2.732l69.407 69.347a3.86 3.86 0 0 0 2.73 1.13h30.13a3.862 3.862 0 0 0 3.862-3.862v-58.526a3.862 3.862 0 0 0-3.862-3.862H86.047a3.86 3.86 0 0 1-2.73-1.13l1.896-1.897c.221.221.521.345.834.345h65.234a6.544 6.544 0 0 1 6.544 6.544v58.526a6.544 6.544 0 0 1-6.544 6.544h-30.13a6.544 6.544 0 0 1-4.626-1.914l-69.407-69.348a6.543 6.543 0 0 1-1.918-4.629v-85.945a1.18 1.18 0 0 0-.346-.834l-83.057-82.986a6.546 6.546 0 0 1-1.92-4.63v-81.247a6.544 6.544 0 0 1 6.545-6.544h26.23c1.735 0 3.398.689 4.626 1.915z"/><path fill="url(#O)" d="m-2.722 154.839 67.458 67.4c.22.221.52.345.834.345h50.12a6.544 6.544 0 0 1 6.544 6.544v59.491a6.544 6.544 0 0 1-6.544 6.544H70.758a1.18 1.18 0 0 0-1.18 1.18v106.588c0 .314.125.614.346.835l15.289 15.276-1.896 1.897-15.288-15.276a3.861 3.861 0 0 1-1.133-2.732V296.343a3.862 3.862 0 0 1 3.862-3.862h44.932a3.862 3.862 0 0 0 3.862-3.862v-59.491a3.862 3.862 0 0 0-3.862-3.862H65.57a3.86 3.86 0 0 1-2.73-1.13l-67.458-67.4a3.86 3.86 0 0 0-2.73-1.13h-26.23a3.862 3.862 0 0 0-3.862 3.862v81.247a3.86 3.86 0 0 0 1.132 2.732l83.057 82.986a3.864 3.864 0 0 1 1.133 2.732v85.945c0 1.025.407 2.007 1.132 2.732l69.407 69.347a3.86 3.86 0 0 0 2.73 1.13h30.13a3.862 3.862 0 0 0 3.862-3.862v-58.526a3.862 3.862 0 0 0-3.862-3.862H86.047a3.86 3.86 0 0 1-2.73-1.13l1.896-1.897c.221.221.521.345.834.345h65.234a6.544 6.544 0 0 1 6.544 6.544v58.526a6.544 6.544 0 0 1-6.544 6.544h-30.13a6.544 6.544 0 0 1-4.626-1.914l-69.407-69.348a6.543 6.543 0 0 1-1.918-4.629v-85.945a1.18 1.18 0 0 0-.346-.834l-83.057-82.986a6.546 6.546 0 0 1-1.92-4.63v-81.247a6.544 6.544 0 0 1 6.545-6.544h26.23c1.735 0 3.398.689 4.626 1.915z"/></g></g></g><defs><linearGradient id="d" x1="265.817" x2="166.552" y1="577.689" y2="462.597" gradientUnits="userSpaceOnUse"><stop stop-color="#35FEB7"/><stop offset="1" stop-color="#00DDB3" stop-opacity=".32"/></linearGradient><linearGradient id="g" x1="193.438" x2="23.374" y1="556.063" y2="474.507" gradientUnits="userSpaceOnUse"><stop stop-color="#5CF8CF" stop-opacity=".25"/><stop offset="1" stop-opacity="0"/></linearGradient><linearGradient id="i" x1="20.66" x2="57.798" y1="166.963" y2="145.61" gradientUnits="userSpaceOnUse"><stop stop-color="#5CF8CF" stop-opacity=".25"/><stop offset="1" stop-opacity="0"/></linearGradient><linearGradient id="k" x1="25.667" x2="25.667" y1="131.009" y2="142.855" gradientUnits="userSpaceOnUse"><stop stop-color="#35FEB7"/><stop offset="1" stop-color="#35FEB7" stop-opacity=".32"/></linearGradient><linearGradient id="m" x1="22.227" x2="28.218" y1="131.849" y2="134.719" gradientUnits="userSpaceOnUse"><stop stop-color="#fff" stop-opacity=".32"/><stop offset="1" stop-color="#fff" stop-opacity="0"/></linearGradient><linearGradient id="o" x1="75.912" x2="88.569" y1="182.53" y2="188.6" gradientUnits="userSpaceOnUse"><stop stop-color="#5CF8CF" stop-opacity=".25"/><stop offset="1" stop-opacity="0"/></linearGradient><linearGradient id="q" x1="194.209" x2="218.069" y1="408.052" y2="415.253" gradientUnits="userSpaceOnUse"><stop stop-color="#5CF8CF" stop-opacity=".25"/><stop offset="1" stop-opacity="0"/></linearGradient><linearGradient id="s" x1="194.209" x2="219.125" y1="381.773" y2="387.048" gradientUnits="userSpaceOnUse"><stop stop-color="#5CF8CF" stop-opacity=".25"/><stop offset="1" stop-opacity="0"/></linearGradient><linearGradient id="u" x1="157.235" x2="157.235" y1="463.354" y2="475.423" gradientUnits="userSpaceOnUse"><stop stop-color="#35FEB7"/><stop offset="1" stop-color="#35FEB7" stop-opacity=".32"/></linearGradient><linearGradient id="w" x1="153.731" x2="159.834" y1="464.21" y2="467.134" gradientUnits="userSpaceOnUse"><stop stop-color="#fff" stop-opacity=".32"/><stop offset="1" stop-color="#fff" stop-opacity="0"/></linearGradient><linearGradient id="y" x1="190.321" x2="199.653" y1="323.886" y2="326.353" gradientUnits="userSpaceOnUse"><stop stop-color="#5CF8CF" stop-opacity=".25"/><stop offset="1" stop-opacity="0"/></linearGradient><linearGradient id="A" x1="190.321" x2="199.653" y1="369.033" y2="371.5" gradientUnits="userSpaceOnUse"><stop stop-color="#5CF8CF" stop-opacity=".25"/><stop offset="1" stop-opacity="0"/></linearGradient><linearGradient id="C" x1="79.038" x2="88.37" y1="323.886" y2="326.353" gradientUnits="userSpaceOnUse"><stop stop-color="#5CF8CF" stop-opacity=".25"/><stop offset="1" stop-opacity="0"/></linearGradient><linearGradient id="E" x1="79.038" x2="88.37" y1="369.033" y2="371.5" gradientUnits="userSpaceOnUse"><stop stop-color="#5CF8CF" stop-opacity=".25"/><stop offset="1" stop-opacity="0"/></linearGradient><linearGradient id="G" x1="94.277" x2="122.881" y1="310.65" y2="341.517" gradientUnits="userSpaceOnUse"><stop stop-color="#35FEB7"/><stop offset="1" stop-color="#00DDB3" stop-opacity=".32"/></linearGradient><linearGradient id="J" x1="113.534" x2="159.941" y1="316.831" y2="337.544" gradientUnits="userSpaceOnUse"><stop stop-color="#5CF8CF" stop-opacity=".25"/><stop offset="1" stop-opacity="0"/></linearGradient><linearGradient id="L" x1="-38.5" x2="53.398" y1="157.795" y2="219.416" gradientUnits="userSpaceOnUse"><stop stop-color="#35FEB7"/><stop offset="1" stop-color="#00DDB3" stop-opacity=".32"/></linearGradient><linearGradient id="O" x1="2.935" x2="114.127" y1="179.201" y2="210.04" gradientUnits="userSpaceOnUse"><stop stop-color="#5CF8CF" stop-opacity=".25"/><stop offset="1" stop-opacity="0"/></linearGradient><filter id="c" width="364.083" height="362.86" x="-88.537" y="238.497" color-interpolation-filters="sRGB" filterUnits="userSpaceOnUse"><feFlood flood-opacity="0" result="BackgroundImageFix"/><feGaussianBlur in="BackgroundImageFix" stdDeviation=".644"/><feComposite in2="SourceAlpha" operator="in" result="effect1_backgroundBlur_1874_5521"/><feColorMatrix in="SourceAlpha" result="hardAlpha" values="0 0 0 0 0 0 0 0 0 0 0 0 0 0 0 0 0 0 127 0"/><feOffset dy="5.364"/><feGaussianBlur stdDeviation="8.046"/><feComposite in2="hardAlpha" operator="out"/><feColorMatrix values="0 0 0 0 0 0 0 0 0 0 0 0 0 0 0 0 0 0 0.64 0"/><feBlend in2="effect1_backgroundBlur_1874_5521" result="effect2_dropShadow_1874_5521"/><feBlend in="SourceGraphic" in2="effect2_dropShadow_1874_5521" result="shape"/></filter><filter id="f" width="369.453" height="368.229" x="-91.219" y="235.809" color-interpolation-filters="sRGB" filterUnits="userSpaceOnUse"><feFlood flood-opacity="0" result="BackgroundImageFix"/><feGaussianBlur in="BackgroundImageFix" stdDeviation=".644"/><feComposite in2="SourceAlpha" operator="in" result="effect1_backgroundBlur_1874_5521"/><feColorMatrix in="SourceAlpha" result="hardAlpha" values="0 0 0 0 0 0 0 0 0 0 0 0 0 0 0 0 0 0 127 0"/><feOffset dy="5.364"/><feGaussianBlur stdDeviation="8.046"/><feComposite in2="hardAlpha" operator="out"/><feColorMatrix values="0 0 0 0 0 0 0 0 0 0 0 0 0 0 0 0 0 0 0.64 0"/><feBlend in2="effect1_backgroundBlur_1874_5521" result="effect2_dropShadow_1874_5521"/><feBlend in="SourceGraphic" in2="effect2_dropShadow_1874_5521" result="shape"/></filter><filter id="h" width="138.907" height="96.414" x="-51.8" y="101.797" color-interpolation-filters="sRGB" filterUnits="userSpaceOnUse"><feFlood flood-opacity="0" result="BackgroundImageFix"/><feGaussianBlur in="BackgroundImageFix" stdDeviation="1.159"/><feComposite in2="SourceAlpha" operator="in" result="effect1_backgroundBlur_1874_5521"/><feBlend in="SourceGraphic" in2="effect1_backgroundBlur_1874_5521" result="shape"/></filter><filter id="j" width="21.323" height="21.323" x="15.005" y="126.27" color-interpolation-filters="sRGB" filterUnits="userSpaceOnUse"><feFlood flood-opacity="0" result="BackgroundImageFix"/><feBlend in="SourceGraphic" in2="BackgroundImageFix" result="shape"/><feGaussianBlur result="effect1_foregroundBlur_1874_5521" stdDeviation="2.369"/></filter><filter id="l" width="21.323" height="21.323" x="15.005" y="126.27" color-interpolation-filters="sRGB" filterUnits="userSpaceOnUse"><feFlood flood-opacity="0" result="BackgroundImageFix"/><feBlend in="SourceGraphic" in2="BackgroundImageFix" result="shape"/><feGaussianBlur result="effect1_foregroundBlur_1874_5521" stdDeviation="2.369"/></filter><filter id="n" width="28.828" height="28.806" x="68.767" y="178.86" color-interpolation-filters="sRGB" filterUnits="userSpaceOnUse"><feFlood flood-opacity="0" result="BackgroundImageFix"/><feGaussianBlur in="BackgroundImageFix" stdDeviation=".948"/><feComposite in2="SourceAlpha" operator="in" result="effect1_backgroundBlur_1874_5521"/><feBlend in="SourceGraphic" in2="effect1_backgroundBlur_1874_5521" result="shape"/></filter><filter id="p" width="76.972" height="95.511" x="153.962" y="377.931" color-interpolation-filters="sRGB" filterUnits="userSpaceOnUse"><feFlood flood-opacity="0" result="BackgroundImageFix"/><feGaussianBlur in="BackgroundImageFix" stdDeviation="1.159"/><feComposite in2="SourceAlpha" operator="in" result="effect1_backgroundBlur_1874_5521"/><feBlend in="SourceGraphic" in2="effect1_backgroundBlur_1874_5521" result="shape"/></filter><filter id="r" width="76.62" height="134.811" x="154.315" y="338.632" color-interpolation-filters="sRGB" filterUnits="userSpaceOnUse"><feFlood flood-opacity="0" result="BackgroundImageFix"/><feGaussianBlur in="BackgroundImageFix" stdDeviation="1.159"/><feComposite in2="SourceAlpha" operator="in" result="effect1_backgroundBlur_1874_5521"/><feBlend in="SourceGraphic" in2="effect1_backgroundBlur_1874_5521" result="shape"/></filter><filter id="t" width="21.725" height="21.725" x="146.372" y="458.526" color-interpolation-filters="sRGB" filterUnits="userSpaceOnUse"><feFlood flood-opacity="0" result="BackgroundImageFix"/><feBlend in="SourceGraphic" in2="BackgroundImageFix" result="shape"/><feGaussianBlur result="effect1_foregroundBlur_1874_5521" stdDeviation="2.414"/></filter><filter id="v" width="21.725" height="21.725" x="146.372" y="458.526" color-interpolation-filters="sRGB" filterUnits="userSpaceOnUse"><feFlood flood-opacity="0" result="BackgroundImageFix"/><feBlend in="SourceGraphic" in2="BackgroundImageFix" result="shape"/><feGaussianBlur result="effect1_foregroundBlur_1874_5521" stdDeviation="2.414"/></filter><filter id="x" width="18.585" height="31.63" x="185.691" y="320.559" color-interpolation-filters="sRGB" filterUnits="userSpaceOnUse"><feFlood flood-opacity="0" result="BackgroundImageFix"/><feGaussianBlur in="BackgroundImageFix" stdDeviation=".632"/><feComposite in2="SourceAlpha" operator="in" result="effect1_backgroundBlur_1874_5521"/><feBlend in="SourceGraphic" in2="effect1_backgroundBlur_1874_5521" result="shape"/></filter><filter id="z" width="18.585" height="31.63" x="185.691" y="365.706" color-interpolation-filters="sRGB" filterUnits="userSpaceOnUse"><feFlood flood-opacity="0" result="BackgroundImageFix"/><feGaussianBlur in="BackgroundImageFix" stdDeviation=".632"/><feComposite in2="SourceAlpha" operator="in" result="effect1_backgroundBlur_1874_5521"/><feBlend in="SourceGraphic" in2="effect1_backgroundBlur_1874_5521" result="shape"/></filter><filter id="B" width="18.585" height="31.63" x="74.408" y="320.559" color-interpolation-filters="sRGB" filterUnits="userSpaceOnUse"><feFlood flood-opacity="0" result="BackgroundImageFix"/><feGaussianBlur in="BackgroundImageFix" stdDeviation=".632"/><feComposite in2="SourceAlpha" operator="in" result="effect1_backgroundBlur_1874_5521"/><feBlend in="SourceGraphic" in2="effect1_backgroundBlur_1874_5521" result="shape"/></filter><filter id="D" width="18.585" height="31.63" x="74.408" y="365.706" color-interpolation-filters="sRGB" filterUnits="userSpaceOnUse"><feFlood flood-opacity="0" result="BackgroundImageFix"/><feGaussianBlur in="BackgroundImageFix" stdDeviation=".632"/><feComposite in2="SourceAlpha" operator="in" result="effect1_backgroundBlur_1874_5521"/><feBlend in="SourceGraphic" in2="effect1_backgroundBlur_1874_5521" result="shape"/></filter><filter id="F" width="121.094" height="127.675" x="78.974" y="299.488" color-interpolation-filters="sRGB" filterUnits="userSpaceOnUse"><feFlood flood-opacity="0" result="BackgroundImageFix"/><feGaussianBlur in="BackgroundImageFix" stdDeviation=".632"/><feComposite in2="SourceAlpha" operator="in" result="effect1_backgroundBlur_1874_5521"/><feColorMatrix in="SourceAlpha" result="hardAlpha" values="0 0 0 0 0 0 0 0 0 0 0 0 0 0 0 0 0 0 127 0"/><feOffset dy="5.265"/><feGaussianBlur stdDeviation="7.897"/><feComposite in2="hardAlpha" operator="out"/><feColorMatrix values="0 0 0 0 0 0 0 0 0 0 0 0 0 0 0 0 0 0 0.64 0"/><feBlend in2="effect1_backgroundBlur_1874_5521" result="effect2_dropShadow_1874_5521"/><feBlend in="SourceGraphic" in2="effect2_dropShadow_1874_5521" result="shape"/></filter><filter id="I" width="126.359" height="132.94" x="76.342" y="296.855" color-interpolation-filters="sRGB" filterUnits="userSpaceOnUse"><feFlood flood-opacity="0" result="BackgroundImageFix"/><feGaussianBlur in="BackgroundImageFix" stdDeviation=".632"/><feComposite in2="SourceAlpha" operator="in" result="effect1_backgroundBlur_1874_5521"/><feColorMatrix in="SourceAlpha" result="hardAlpha" values="0 0 0 0 0 0 0 0 0 0 0 0 0 0 0 0 0 0 127 0"/><feOffset dy="5.265"/><feGaussianBlur stdDeviation="7.897"/><feComposite in2="hardAlpha" operator="out"/><feColorMatrix values="0 0 0 0 0 0 0 0 0 0 0 0 0 0 0 0 0 0 0.64 0"/><feBlend in2="effect1_backgroundBlur_1874_5521" result="effect2_dropShadow_1874_5521"/><feBlend in="SourceGraphic" in2="effect2_dropShadow_1874_5521" result="shape"/></filter><filter id="K" width="224.768" height="364.898" x="-53.533" y="144.878" color-interpolation-filters="sRGB" filterUnits="userSpaceOnUse"><feFlood flood-opacity="0" result="BackgroundImageFix"/><feGaussianBlur in="BackgroundImageFix" stdDeviation=".644"/><feComposite in2="SourceAlpha" operator="in" result="effect1_backgroundBlur_1874_5521"/><feColorMatrix in="SourceAlpha" result="hardAlpha" values="0 0 0 0 0 0 0 0 0 0 0 0 0 0 0 0 0 0 127 0"/><feOffset dy="5.364"/><feGaussianBlur stdDeviation="8.046"/><feComposite in2="hardAlpha" operator="out"/><feColorMatrix values="0 0 0 0 0 0 0 0 0 0 0 0 0 0 0 0 0 0 0.64 0"/><feBlend in2="effect1_backgroundBlur_1874_5521" result="effect2_dropShadow_1874_5521"/><feBlend in="SourceGraphic" in2="effect2_dropShadow_1874_5521" result="shape"/></filter><filter id="N" width="230.132" height="370.263" x="-56.215" y="142.196" color-interpolation-filters="sRGB" filterUnits="userSpaceOnUse"><feFlood flood-opacity="0" result="BackgroundImageFix"/><feGaussianBlur in="BackgroundImageFix" stdDeviation=".644"/><feComposite in2="SourceAlpha" operator="in" result="effect1_backgroundBlur_1874_5521"/><feColorMatrix in="SourceAlpha" result="hardAlpha" values="0 0 0 0 0 0 0 0 0 0 0 0 0 0 0 0 0 0 127 0"/><feOffset dy="5.364"/><feGaussianBlur stdDeviation="8.046"/><feComposite in2="hardAlpha" operator="out"/><feColorMatrix values="0 0 0 0 0 0 0 0 0 0 0 0 0 0 0 0 0 0 0.64 0"/><feBlend in2="effect1_backgroundBlur_1874_5521" result="effect2_dropShadow_1874_5521"/><feBlend in="SourceGraphic" in2="effect2_dropShadow_1874_5521" result="shape"/></filter><radialGradient id="e" cx="0" cy="0" r="1" gradientTransform="rotate(4.025 -5763.784 1626.77) scale(149.651 183.139)" gradientUnits="userSpaceOnUse"><stop stop-color="#00DDB3" stop-opacity="0"/><stop offset="1" stop-color="#35FEB7"/></radialGradient><radialGradient id="H" cx="0" cy="0" r="1" gradientTransform="rotate(-175.677 75.976 176.886) scale(39.8309 52.3329)" gradientUnits="userSpaceOnUse"><stop stop-color="#00DDB3" stop-opacity="0"/><stop offset="1" stop-color="#35FEB7"/></radialGradient><radialGradient id="M" cx="0" cy="0" r="1" gradientTransform="matrix(-85.4587 -10.39764 21.78821 -179.0784 56.444 325.202)" gradientUnits="userSpaceOnUse"><stop stop-color="#00DDB3" stop-opacity="0"/><stop offset="1" stop-color="#35FEB7"/></radialGradient><clipPath id="a"><path fill="#fff" d="M0 0h308v556H0z"/></clipPath><clipPath id="b"><path fill="#fff" d="M0 106h308v450.154H0z"/></clipPath></defs></svg>