<svg xmlns:xlink="http://www.w3.org/1999/xlink" xmlns="http://www.w3.org/2000/svg" class="c-AsWAM c-AsWAM-faLzkq-size-md c-AsWAM-ibOmiok-css" width="32"  height="32" ><defs><symbol fill="none" xmlns="http://www.w3.org/2000/svg" viewBox="0 0 32 32" id="icon-social-black-facebook">
    <path d="M29.3333 16C29.3333 8.63616 23.3638 2.66663 16 2.66663C8.63616 2.66663 2.66663 8.63616 2.66663 16C2.66663 22.6549 7.54241 28.1711 13.9166 29.1713V19.8541H10.5312V16H13.9166V13.0625C13.9166 9.72079 15.9073 7.87496 18.9528 7.87496C20.4112 7.87496 21.9375 8.13538 21.9375 8.13538V11.4166H20.2562C18.6 11.4166 18.0833 12.4445 18.0833 13.5V16H21.7812L21.1901 19.8541H18.0833V29.1713C24.4575 28.1711 29.3333 22.6549 29.3333 16Z" fill="currentColor"></path>
    <path d="M21.19 19.8542L21.7811 16H18.0832V13.5C18.0832 12.4456 18.5999 11.4167 20.2561 11.4167H21.9374V8.13542C21.9374 8.13542 20.4116 7.875 18.9527 7.875C15.9072 7.875 13.9165 9.72083 13.9165 13.0625V16H10.5311V19.8542H13.9165V29.1714C15.297 29.3873 16.7027 29.3873 18.0832 29.1714V19.8542H21.19Z" fill="white"></path>
  </symbol></defs><use href="/assets/icons-sprite.svg#icon-social-black-facebook" xlink:href="#icon-social-black-facebook"></use></svg>