<svg xmlns:xlink="http://www.w3.org/1999/xlink" xmlns="http://www.w3.org/2000/svg" class="c-AsWAM c-AsWAM-faLzkq-size-md c-AsWAM-ibOmiok-css" width="32"  height="32" ><defs><symbol fill="none" xmlns="http://www.w3.org/2000/svg" viewBox="0 0 32 32" id="icon-social-black-discord">
    <path d="M24.6 2.66663H6.73333C5.22667 2.66663 4 3.89329 4 5.41329V23.44C4 24.96 5.22667 26.1866 6.73333 26.1866H21.8533L21.1467 23.72L22.8533 25.3066L24.4667 26.8L27.3333 29.3333V5.41329C27.3333 3.89329 26.1067 2.66663 24.6 2.66663ZM19.4533 20.08C19.4533 20.08 18.9733 19.5066 18.5733 19C20.32 18.5066 20.9867 17.4133 20.9867 17.4133C20.44 17.7733 19.92 18.0266 19.4533 18.2C18.7867 18.48 18.1467 18.6666 17.52 18.7733C16.24 19.0133 15.0667 18.9466 14.0667 18.76C13.3067 18.6133 12.6533 18.4 12.1067 18.1866C11.8 18.0666 11.4667 17.92 11.1333 17.7333C11.0933 17.7066 11.0533 17.6933 11.0133 17.6666C10.9867 17.6533 10.9733 17.64 10.96 17.6266C10.72 17.4933 10.5867 17.4 10.5867 17.4C10.5867 17.4 11.2267 18.4666 12.92 18.9733C12.52 19.48 12.0267 20.08 12.0267 20.08C9.08 19.9866 7.96 18.0533 7.96 18.0533C7.96 13.76 9.88 10.28 9.88 10.28C11.8 8.83996 13.6267 8.87996 13.6267 8.87996L13.76 9.03996C11.36 9.73329 10.2533 10.7866 10.2533 10.7866C10.2533 10.7866 10.5467 10.6266 11.04 10.4C12.4667 9.77329 13.6 9.59996 14.0667 9.55996C14.1467 9.54663 14.2133 9.53329 14.2933 9.53329C15.1067 9.42663 16.0267 9.39996 16.9867 9.50663C18.2533 9.65329 19.6133 10.0266 21 10.7866C21 10.7866 19.9467 9.78663 17.68 9.09329L17.8667 8.87996C17.8667 8.87996 19.6933 8.83996 21.6133 10.28C21.6133 10.28 23.5333 13.76 23.5333 18.0533C23.5333 18.0533 22.4 19.9866 19.4533 20.08ZM13.2533 13.8533C12.4933 13.8533 11.8933 14.52 11.8933 15.3333C11.8933 16.1466 12.5067 16.8133 13.2533 16.8133C14.0133 16.8133 14.6133 16.1466 14.6133 15.3333C14.6267 14.52 14.0133 13.8533 13.2533 13.8533ZM18.12 13.8533C17.36 13.8533 16.76 14.52 16.76 15.3333C16.76 16.1466 17.3733 16.8133 18.12 16.8133C18.88 16.8133 19.48 16.1466 19.48 15.3333C19.48 14.52 18.88 13.8533 18.12 13.8533Z" fill="currentColor"></path>
  </symbol></defs><use href="/assets/icons-sprite.svg#icon-social-black-discord" xlink:href="#icon-social-black-discord"></use></svg>