<svg xmlns:xlink="http://www.w3.org/1999/xlink" xmlns="http://www.w3.org/2000/svg" class="c-AsWAM c-AsWAM-faLzkq-size-md c-AsWAM-idowubr-css" width="32"  height="32" ><defs><symbol fill="none" xmlns="http://www.w3.org/2000/svg" viewBox="0 0 32 32" id="icon-hamburger-menu">
    <path fill-rule="evenodd" clip-rule="evenodd" d="M5.3335 9.66666C5.3335 9.11437 5.78121 8.66666 6.3335 8.66666L25.6668 8.66666C26.2191 8.66666 26.6668 9.11437 26.6668 9.66666C26.6668 10.2189 26.2191 10.6667 25.6668 10.6667L6.3335 10.6667C5.78121 10.6667 5.3335 10.2189 5.3335 9.66666ZM5.33316 16.3334C5.33316 15.7811 5.78088 15.3334 6.33316 15.3334L25.6665 15.3334C26.2188 15.3334 26.6665 15.7811 26.6665 16.3334C26.6665 16.8857 26.2188 17.3334 25.6665 17.3334L6.33316 17.3334C5.78088 17.3334 5.33316 16.8857 5.33316 16.3334ZM5.33316 23C5.33316 22.4477 5.78088 22 6.33316 22L25.6665 22C26.2188 22 26.6665 22.4477 26.6665 23C26.6665 23.5523 26.2188 24 25.6665 24L6.33316 24C5.78088 24 5.33316 23.5523 5.33316 23Z" fill="currentColor"></path>
  </symbol></defs><use href="/assets/icons-sprite.svg#icon-hamburger-menu" xlink:href="#icon-hamburger-menu"></use></svg>