<svg xmlns:xlink="http://www.w3.org/1999/xlink" xmlns="http://www.w3.org/2000/svg" class="c-AsWAM c-AsWAM-faLzkq-size-md c-AsWAM-ibOmiok-css" width="32"  height="32" ><defs><symbol fill="none" xmlns="http://www.w3.org/2000/svg" viewBox="0 0 32 32" id="icon-social-black-youtube">
    <path fill-rule="evenodd" clip-rule="evenodd" d="M27.9142 8.09847C28.328 8.51487 28.6251 9.03264 28.7758 9.59996C29.3334 11.6939 29.3334 16.0606 29.3334 16.0606C29.3334 16.0606 29.3334 20.4272 28.7758 22.5212C28.6251 23.0885 28.328 23.6063 27.9142 24.0227C27.5005 24.4391 26.9846 24.7395 26.4183 24.8939C24.3334 25.4545 16.0001 25.4545 16.0001 25.4545C16.0001 25.4545 7.66675 25.4545 5.5819 24.8939C5.01556 24.7395 4.4997 24.4391 4.08596 24.0227C3.67221 23.6063 3.37509 23.0885 3.22432 22.5212C2.66675 20.4272 2.66675 16.0606 2.66675 16.0606C2.66675 16.0606 2.66675 11.6939 3.22432 9.59996C3.37509 9.03264 3.67221 8.51487 4.08596 8.09847C4.4997 7.68206 5.01556 7.38163 5.5819 7.22723C7.66675 6.66663 16.0001 6.66663 16.0001 6.66663C16.0001 6.66663 24.3334 6.66663 26.4183 7.22723C26.9846 7.38163 27.5005 7.68206 27.9142 8.09847ZM20.2424 16.0606L13.2727 20.0258V12.0955L20.2424 16.0606Z" fill="currentColor"></path>
  </symbol></defs><use href="/assets/icons-sprite.svg#icon-social-black-youtube" xlink:href="#icon-social-black-youtube"></use></svg>