<svg xmlns:xlink="http://www.w3.org/1999/xlink" xmlns="http://www.w3.org/2000/svg" width="308" height="556" fill="none"><g clip-path="url(#a)"><g fill-rule="evenodd" clip-rule="evenodd" filter="url(#b)"><path fill="#61F7CF" fill-opacity=".16" d="M150.761 180.876h78.788v2.683h-78.788v-2.683z"/><path fill="url(#c)" d="M150.761 180.876h78.788v2.683h-78.788v-2.683z"/></g><g filter="url(#d)"><path fill="#002B2B" d="M130.983 182.632c0-5.856 4.747-10.603 10.603-10.603h21.208c5.856 0 10.603 4.747 10.603 10.603 0 5.857-4.747 10.604-10.603 10.604h-21.208c-5.856 0-10.603-4.747-10.603-10.604z"/><path fill="#00DDB3" fill-opacity=".32" d="M130.983 182.632c0-5.856 4.747-10.603 10.603-10.603h21.208c5.856 0 10.603 4.747 10.603 10.603 0 5.857-4.747 10.604-10.603 10.604h-21.208c-5.856 0-10.603-4.747-10.603-10.604z"/><path fill="url(#e)" d="M130.983 182.632c0-5.856 4.747-10.603 10.603-10.603h21.208c5.856 0 10.603 4.747 10.603 10.603 0 5.857-4.747 10.604-10.603 10.604h-21.208c-5.856 0-10.603-4.747-10.603-10.604z"/></g><g filter="url(#f)"><path fill="#00DDB3" fill-opacity=".32" d="M141.587 172.029h21.207v21.207h-21.207v-21.207z"/><path fill="url(#g)" d="M141.587 172.029h21.207v21.207h-21.207v-21.207z"/></g><path fill="#000" d="M273.042 242.158h245.625v245.415H273.042V242.158z" opacity=".32"/><g filter="url(#h)" shape-rendering="crispEdges"><path fill="url(#i)" fill-opacity=".12" d="M273.042 230.084a3.862 3.862 0 0 1 3.862-3.862h237.901a3.862 3.862 0 0 1 3.862 3.862v237.69a3.863 3.863 0 0 1-3.862 3.863H276.904a3.863 3.863 0 0 1-3.862-3.863v-237.69z"/><path fill="url(#j)" fill-opacity=".04" d="M273.042 230.084a3.862 3.862 0 0 1 3.862-3.862h237.901a3.862 3.862 0 0 1 3.862 3.862v237.69a3.863 3.863 0 0 1-3.862 3.863H276.904a3.863 3.863 0 0 1-3.862-3.863v-237.69z"/></g><g fill-rule="evenodd" clip-rule="evenodd" filter="url(#k)" shape-rendering="crispEdges"><path fill="#35FEB7" fill-opacity=".16" d="M276.904 223.54h237.901a6.544 6.544 0 0 1 6.544 6.544v237.69a6.544 6.544 0 0 1-6.544 6.545H276.904a6.544 6.544 0 0 1-6.544-6.545v-237.69a6.544 6.544 0 0 1 6.544-6.544zm0 2.682a3.862 3.862 0 0 0-3.862 3.862v237.69a3.863 3.863 0 0 0 3.862 3.863h237.901a3.863 3.863 0 0 0 3.862-3.863v-237.69a3.862 3.862 0 0 0-3.862-3.862H276.904z"/><path fill="url(#l)" d="M276.904 223.54h237.901a6.544 6.544 0 0 1 6.544 6.544v237.69a6.544 6.544 0 0 1-6.544 6.545H276.904a6.544 6.544 0 0 1-6.544-6.545v-237.69a6.544 6.544 0 0 1 6.544-6.544zm0 2.682a3.862 3.862 0 0 0-3.862 3.862v237.69a3.863 3.863 0 0 0 3.862 3.863h237.901a3.863 3.863 0 0 0 3.862-3.863v-237.69a3.862 3.862 0 0 0-3.862-3.862H276.904z"/></g><g fill-rule="evenodd" clip-rule="evenodd" filter="url(#m)"><path fill="#61F7CF" fill-opacity=".16" d="M222.789 261.002v74.647h2.682v-16.985h39.026v-2.682h-39.026v-15.645h39.026v-2.682h-39.026v-15.644h39.026v-2.682h-39.026v-15.644h42.255v-2.683h-44.937z"/><path fill="url(#n)" d="M222.789 261.002v74.647h2.682v-16.985h39.026v-2.682h-39.026v-15.645h39.026v-2.682h-39.026v-15.644h39.026v-2.682h-39.026v-15.644h42.255v-2.683h-44.937z"/></g><g fill-rule="evenodd" clip-rule="evenodd" filter="url(#o)"><path fill="#61F7CF" fill-opacity=".16" d="M222.789 334.308v74.646h2.682v-16.985h39.026v-2.682h-39.026v-15.644h39.026v-2.683h-39.026v-15.644h39.026v-2.682h-39.026V336.99h42.255v-2.682h-44.937z"/><path fill="url(#p)" d="M222.789 334.308v74.646h2.682v-16.985h39.026v-2.682h-39.026v-15.644h39.026v-2.683h-39.026v-15.644h39.026v-2.682h-39.026V336.99h42.255v-2.682h-44.937z"/></g><g fill-rule="evenodd" clip-rule="evenodd" filter="url(#q)"><path fill="#61F7CF" fill-opacity=".16" d="M222.789 371.492v57.662h41.708v-2.683h-39.026v-15.644h39.026v-2.682h-39.026v-15.644h39.026v-2.682h-39.026v-15.645h42.255v-2.682h-44.937z"/><path fill="url(#r)" d="M222.789 371.492v57.662h41.708v-2.683h-39.026v-15.644h39.026v-2.682h-39.026v-15.644h39.026v-2.682h-39.026v-15.645h42.255v-2.682h-44.937z"/></g><g filter="url(#s)"><path fill="#002B2B" d="M262.409 264.468a6.374 6.374 0 0 1 6.374-6.374h10.644a6.375 6.375 0 1 1 0 12.749h-10.644a6.375 6.375 0 0 1-6.374-6.375z"/><path fill="#00DDB3" fill-opacity=".32" d="M262.409 264.468a6.374 6.374 0 0 1 6.374-6.374h10.644a6.375 6.375 0 1 1 0 12.749h-10.644a6.375 6.375 0 0 1-6.374-6.375z"/><path fill="url(#t)" d="M262.409 264.468a6.374 6.374 0 0 1 6.374-6.374h10.644a6.375 6.375 0 1 1 0 12.749h-10.644a6.375 6.375 0 0 1-6.374-6.375z"/></g><path fill="#002B2B" d="M262.409 270.843h10.633v5.312h-10.633v-5.312z" opacity=".5"/><g filter="url(#u)"><path fill="#002B2B" d="M262.409 282.529a6.374 6.374 0 0 1 6.374-6.374h10.644a6.375 6.375 0 1 1 0 12.749h-10.644a6.375 6.375 0 0 1-6.374-6.375z"/><path fill="#00DDB3" fill-opacity=".32" d="M262.409 282.529a6.374 6.374 0 0 1 6.374-6.374h10.644a6.375 6.375 0 1 1 0 12.749h-10.644a6.375 6.375 0 0 1-6.374-6.375z"/><path fill="url(#v)" d="M262.409 282.529a6.374 6.374 0 0 1 6.374-6.374h10.644a6.375 6.375 0 1 1 0 12.749h-10.644a6.375 6.375 0 0 1-6.374-6.375z"/></g><path fill="#002B2B" d="M262.409 288.904h10.633v5.312h-10.633v-5.312z" opacity=".5"/><g filter="url(#w)"><path fill="#002B2B" d="M262.409 300.59a6.375 6.375 0 0 1 6.374-6.375h10.644a6.375 6.375 0 1 1 0 12.749h-10.644a6.374 6.374 0 0 1-6.374-6.374z"/><path fill="#00DDB3" fill-opacity=".32" d="M262.409 300.59a6.375 6.375 0 0 1 6.374-6.375h10.644a6.375 6.375 0 1 1 0 12.749h-10.644a6.374 6.374 0 0 1-6.374-6.374z"/><path fill="url(#x)" d="M262.409 300.59a6.375 6.375 0 0 1 6.374-6.375h10.644a6.375 6.375 0 1 1 0 12.749h-10.644a6.374 6.374 0 0 1-6.374-6.374z"/></g><path fill="#002B2B" d="M262.409 306.964h10.633v5.312h-10.633v-5.312z" opacity=".5"/><g filter="url(#y)"><path fill="#002B2B" d="M262.409 318.651a6.375 6.375 0 0 1 6.374-6.375h10.644a6.375 6.375 0 1 1 0 12.749h-10.644a6.374 6.374 0 0 1-6.374-6.374z"/><path fill="#00DDB3" fill-opacity=".32" d="M262.409 318.651a6.375 6.375 0 0 1 6.374-6.375h10.644a6.375 6.375 0 1 1 0 12.749h-10.644a6.374 6.374 0 0 1-6.374-6.374z"/><path fill="url(#z)" d="M262.409 318.651a6.375 6.375 0 0 1 6.374-6.375h10.644a6.375 6.375 0 1 1 0 12.749h-10.644a6.374 6.374 0 0 1-6.374-6.374z"/></g><path fill="#002B2B" d="M262.409 325.025h10.633v5.312h-10.633v-5.312z" opacity=".5"/><g filter="url(#A)"><path fill="#002B2B" d="M262.409 336.711a6.374 6.374 0 0 1 6.374-6.374h10.644a6.375 6.375 0 1 1 0 12.749h-10.644a6.375 6.375 0 0 1-6.374-6.375z"/><path fill="#00DDB3" fill-opacity=".32" d="M262.409 336.711a6.374 6.374 0 0 1 6.374-6.374h10.644a6.375 6.375 0 1 1 0 12.749h-10.644a6.375 6.375 0 0 1-6.374-6.375z"/><path fill="url(#B)" d="M262.409 336.711a6.374 6.374 0 0 1 6.374-6.374h10.644a6.375 6.375 0 1 1 0 12.749h-10.644a6.375 6.375 0 0 1-6.374-6.375z"/></g><path fill="#002B2B" d="M262.409 343.086h10.633v5.312h-10.633v-5.312z" opacity=".5"/><g filter="url(#C)"><path fill="#002B2B" d="M262.409 354.772a6.374 6.374 0 0 1 6.374-6.374h10.644a6.375 6.375 0 1 1 0 12.749h-10.644a6.375 6.375 0 0 1-6.374-6.375z"/><path fill="#00DDB3" fill-opacity=".32" d="M262.409 354.772a6.374 6.374 0 0 1 6.374-6.374h10.644a6.375 6.375 0 1 1 0 12.749h-10.644a6.375 6.375 0 0 1-6.374-6.375z"/><path fill="url(#D)" d="M262.409 354.772a6.374 6.374 0 0 1 6.374-6.374h10.644a6.375 6.375 0 1 1 0 12.749h-10.644a6.375 6.375 0 0 1-6.374-6.375z"/></g><path fill="#002B2B" d="M262.409 361.147h10.633v5.312h-10.633v-5.312z" opacity=".5"/><g filter="url(#E)"><path fill="#002B2B" d="M262.408 372.833a6.375 6.375 0 0 1 6.375-6.374h10.644a6.375 6.375 0 0 1 0 12.749h-10.644a6.375 6.375 0 0 1-6.375-6.375z"/><path fill="#00DDB3" fill-opacity=".32" d="M262.408 372.833a6.375 6.375 0 0 1 6.375-6.374h10.644a6.375 6.375 0 0 1 0 12.749h-10.644a6.375 6.375 0 0 1-6.375-6.375z"/><path fill="url(#F)" d="M262.408 372.833a6.375 6.375 0 0 1 6.375-6.374h10.644a6.375 6.375 0 0 1 0 12.749h-10.644a6.375 6.375 0 0 1-6.375-6.375z"/></g><path fill="#002B2B" d="M262.408 379.208h10.633v5.312h-10.633v-5.312z" opacity=".5"/><g filter="url(#G)"><path fill="#002B2B" d="M262.409 390.894a6.374 6.374 0 0 1 6.374-6.374h10.644a6.375 6.375 0 1 1 0 12.748h-10.644a6.374 6.374 0 0 1-6.374-6.374z"/><path fill="#00DDB3" fill-opacity=".32" d="M262.409 390.894a6.374 6.374 0 0 1 6.374-6.374h10.644a6.375 6.375 0 1 1 0 12.748h-10.644a6.374 6.374 0 0 1-6.374-6.374z"/><path fill="url(#H)" d="M262.409 390.894a6.374 6.374 0 0 1 6.374-6.374h10.644a6.375 6.375 0 1 1 0 12.748h-10.644a6.374 6.374 0 0 1-6.374-6.374z"/></g><path fill="#002B2B" d="M262.409 397.269h10.633v5.312h-10.633v-5.312z" opacity=".5"/><g filter="url(#I)"><path fill="#002B2B" d="M262.409 408.955a6.374 6.374 0 0 1 6.374-6.374h10.644a6.375 6.375 0 1 1 0 12.748h-10.644a6.374 6.374 0 0 1-6.374-6.374z"/><path fill="#00DDB3" fill-opacity=".32" d="M262.409 408.955a6.374 6.374 0 0 1 6.374-6.374h10.644a6.375 6.375 0 1 1 0 12.748h-10.644a6.374 6.374 0 0 1-6.374-6.374z"/><path fill="url(#J)" d="M262.409 408.955a6.374 6.374 0 0 1 6.374-6.374h10.644a6.375 6.375 0 1 1 0 12.748h-10.644a6.374 6.374 0 0 1-6.374-6.374z"/></g><path fill="#002B2B" d="M262.409 415.33h10.633v5.312h-10.633v-5.312z" opacity=".5"/><g filter="url(#K)"><path fill="#002B2B" d="M262.409 427.016a6.375 6.375 0 0 1 6.374-6.375h10.644a6.375 6.375 0 1 1 0 12.749h-10.644a6.374 6.374 0 0 1-6.374-6.374z"/><path fill="#00DDB3" fill-opacity=".32" d="M262.409 427.016a6.375 6.375 0 0 1 6.374-6.375h10.644a6.375 6.375 0 1 1 0 12.749h-10.644a6.374 6.374 0 0 1-6.374-6.374z"/><path fill="url(#L)" d="M262.409 427.016a6.375 6.375 0 0 1 6.374-6.375h10.644a6.375 6.375 0 1 1 0 12.749h-10.644a6.374 6.374 0 0 1-6.374-6.374z"/></g><path fill="#002B2B" d="M262.409 433.39h10.633v5.312h-10.633v-5.312z" opacity=".5"/><g fill-rule="evenodd" clip-rule="evenodd" filter="url(#M)"><path fill="#61F7CF" fill-opacity=".16" d="M134.002 315.716h90.659v2.682h-87.977v57.344h87.977v2.682h-90.659v-62.708z"/><path fill="url(#N)" d="M134.002 315.716h90.659v2.682h-87.977v57.344h87.977v2.682h-90.659v-62.708z"/></g><g fill-opacity=".32" filter="url(#O)"><path fill="#D6FEF1" d="M177.919 316.191a6.035 6.035 0 1 1 12.069 0 6.035 6.035 0 0 1-12.069 0z"/><path fill="url(#P)" d="M177.919 316.191a6.035 6.035 0 1 1 12.069 0 6.035 6.035 0 0 1-12.069 0z"/></g><g filter="url(#Q)"><path fill="url(#R)" fill-rule="evenodd" d="M179.729 316.191a4.225 4.225 0 1 0 8.45-.001 4.225 4.225 0 0 0-8.45.001zm4.225-6.035a6.035 6.035 0 1 0 0 12.07 6.035 6.035 0 0 0 0-12.07z" clip-rule="evenodd"/></g><g filter="url(#S)"><path fill="#002B2B" d="M135.953 327.306c-4.741 0-8.585-3.84-8.585-8.577s3.844-8.578 8.585-8.578c4.741 0 8.585 3.841 8.585 8.578 0 4.737-3.844 8.577-8.585 8.577z"/><path fill="#00DDB3" fill-opacity=".32" d="M135.953 327.306c-4.741 0-8.585-3.84-8.585-8.577s3.844-8.578 8.585-8.578c4.741 0 8.585 3.841 8.585 8.578 0 4.737-3.844 8.577-8.585 8.577z"/><path fill="url(#T)" d="M135.953 327.306c-4.741 0-8.585-3.84-8.585-8.577s3.844-8.578 8.585-8.578c4.741 0 8.585 3.841 8.585 8.578 0 4.737-3.844 8.577-8.585 8.577z"/></g><g filter="url(#U)"><path fill="#002B2B" d="M135.953 355.913c-4.741 0-8.585-3.841-8.585-8.578 0-4.737 3.844-8.577 8.585-8.577 4.741 0 8.585 3.84 8.585 8.577s-3.844 8.578-8.585 8.578z"/><path fill="#00DDB3" fill-opacity=".32" d="M135.953 355.913c-4.741 0-8.585-3.841-8.585-8.578 0-4.737 3.844-8.577 8.585-8.577 4.741 0 8.585 3.84 8.585 8.577s-3.844 8.578-8.585 8.578z"/><path fill="url(#V)" d="M135.953 355.913c-4.741 0-8.585-3.841-8.585-8.578 0-4.737 3.844-8.577 8.585-8.577 4.741 0 8.585 3.84 8.585 8.577s-3.844 8.578-8.585 8.578z"/></g><g filter="url(#W)"><path fill="#002B2B" d="M135.953 384.52c-4.741 0-8.585-3.84-8.585-8.577 0-4.738 3.844-8.578 8.585-8.578 4.741 0 8.585 3.84 8.585 8.578 0 4.737-3.844 8.577-8.585 8.577z"/><path fill="#00DDB3" fill-opacity=".32" d="M135.953 384.52c-4.741 0-8.585-3.84-8.585-8.577 0-4.738 3.844-8.578 8.585-8.578 4.741 0 8.585 3.84 8.585 8.578 0 4.737-3.844 8.577-8.585 8.577z"/><path fill="url(#X)" d="M135.953 384.52c-4.741 0-8.585-3.84-8.585-8.577 0-4.738 3.844-8.578 8.585-8.578 4.741 0 8.585 3.84 8.585 8.578 0 4.737-3.844 8.577-8.585 8.577z"/></g><g filter="url(#Y)"><path fill="#002B2B" d="M186.913 487.573c0 7.038-5.71 12.743-12.754 12.743s-12.755-5.705-12.755-12.743 5.711-12.744 12.755-12.744c7.044 0 12.754 5.706 12.754 12.744z"/><path fill="#00DDB3" fill-opacity=".32" d="M186.913 487.573c0 7.038-5.71 12.743-12.754 12.743s-12.755-5.705-12.755-12.743 5.711-12.744 12.755-12.744c7.044 0 12.754 5.706 12.754 12.744z"/><path fill="url(#Z)" d="M186.913 487.573c0 7.038-5.71 12.743-12.754 12.743s-12.755-5.705-12.755-12.743 5.711-12.744 12.755-12.744c7.044 0 12.754 5.706 12.754 12.744z"/></g><g filter="url(#aa)"><path fill="#002B2B" d="M144.376 487.573c0 7.038-5.711 12.743-12.755 12.743-7.044 0-12.754-5.705-12.754-12.743s5.71-12.744 12.754-12.744 12.755 5.706 12.755 12.744z"/><path fill="#00DDB3" fill-opacity=".32" d="M144.376 487.573c0 7.038-5.711 12.743-12.755 12.743-7.044 0-12.754-5.705-12.754-12.743s5.71-12.744 12.754-12.744 12.755 5.706 12.755 12.744z"/><path fill="url(#ab)" d="M144.376 487.573c0 7.038-5.711 12.743-12.755 12.743-7.044 0-12.754-5.705-12.754-12.743s5.71-12.744 12.754-12.744 12.755 5.706 12.755 12.744z"/></g><g filter="url(#ac)"><path fill="#002B2B" d="M101.839 487.573c0 7.038-5.71 12.743-12.755 12.743-7.044 0-12.754-5.705-12.754-12.743s5.71-12.744 12.754-12.744 12.755 5.706 12.755 12.744z"/><path fill="#00DDB3" fill-opacity=".32" d="M101.839 487.573c0 7.038-5.71 12.743-12.755 12.743-7.044 0-12.754-5.705-12.754-12.743s5.71-12.744 12.754-12.744 12.755 5.706 12.755 12.744z"/><path fill="url(#ad)" d="M101.839 487.573c0 7.038-5.71 12.743-12.755 12.743-7.044 0-12.754-5.705-12.754-12.743s5.71-12.744 12.754-12.744 12.755 5.706 12.755 12.744z"/></g><g fill-opacity=".04" filter="url(#ae)" shape-rendering="crispEdges"><path fill="url(#af)" d="M347.323 154.595a3.863 3.863 0 0 1 3.863 3.862v44.045a3.863 3.863 0 0 1-3.863 3.862H234.737a3.862 3.862 0 0 1-3.863-3.862v-44.045a3.863 3.863 0 0 1 3.863-3.862h112.586z"/><path fill="url(#ag)" d="M347.323 154.595a3.863 3.863 0 0 1 3.863 3.862v44.045a3.863 3.863 0 0 1-3.863 3.862H234.737a3.862 3.862 0 0 1-3.863-3.862v-44.045a3.863 3.863 0 0 1 3.863-3.862h112.586z"/></g><g fill-rule="evenodd" clip-rule="evenodd" filter="url(#ah)" shape-rendering="crispEdges"><path fill="#35FEB7" fill-opacity=".16" d="M353.868 158.457v44.045a6.544 6.544 0 0 1-6.545 6.544H234.737a6.544 6.544 0 0 1-6.545-6.544v-44.045a6.544 6.544 0 0 1 6.545-6.544h112.586a6.544 6.544 0 0 1 6.545 6.544zm-2.682 0a3.863 3.863 0 0 0-3.863-3.862H234.737a3.863 3.863 0 0 0-3.863 3.862v44.045a3.863 3.863 0 0 0 3.863 3.862h112.586a3.863 3.863 0 0 0 3.863-3.862v-44.045z"/><path fill="url(#ai)" d="M353.868 158.457v44.045a6.544 6.544 0 0 1-6.545 6.544H234.737a6.544 6.544 0 0 1-6.545-6.544v-44.045a6.544 6.544 0 0 1 6.545-6.544h112.586a6.544 6.544 0 0 1 6.545 6.544zm-2.682 0a3.863 3.863 0 0 0-3.863-3.862H234.737a3.863 3.863 0 0 0-3.863 3.862v44.045a3.863 3.863 0 0 0 3.863 3.862h112.586a3.863 3.863 0 0 0 3.863-3.862v-44.045z"/></g></g><defs><linearGradient id="c" x1="194.598" x2="194.63" y1="182.543" y2="183.484" gradientUnits="userSpaceOnUse"><stop stop-color="#5CF8CF" stop-opacity=".25"/><stop offset="1" stop-opacity="0"/></linearGradient><linearGradient id="e" x1="139.875" x2="153.623" y1="173.533" y2="186.707" gradientUnits="userSpaceOnUse"><stop stop-color="#5CF8CF" stop-opacity=".25"/><stop offset="1" stop-opacity="0"/></linearGradient><linearGradient id="g" x1="146.033" x2="156.757" y1="173.533" y2="178.671" gradientUnits="userSpaceOnUse"><stop stop-color="#5CF8CF" stop-opacity=".25"/><stop offset="1" stop-opacity="0"/></linearGradient><linearGradient id="i" x1="271.691" x2="344.168" y1="227.836" y2="311.869" gradientUnits="userSpaceOnUse"><stop stop-color="#35FEB7"/><stop offset="1" stop-color="#00DDB3" stop-opacity=".32"/></linearGradient><linearGradient id="l" x1="324.537" x2="448.706" y1="243.626" y2="303.172" gradientUnits="userSpaceOnUse"><stop stop-color="#5CF8CF" stop-opacity=".25"/><stop offset="1" stop-opacity="0"/></linearGradient><linearGradient id="n" x1="238.328" x2="249.81" y1="303.13" y2="321.559" gradientUnits="userSpaceOnUse"><stop stop-color="#5CF8CF" stop-opacity=".25"/><stop offset="1" stop-opacity="0"/></linearGradient><linearGradient id="p" x1="238.328" x2="249.81" y1="376.435" y2="394.864" gradientUnits="userSpaceOnUse"><stop stop-color="#5CF8CF" stop-opacity=".25"/><stop offset="1" stop-opacity="0"/></linearGradient><linearGradient id="r" x1="238.328" x2="245.687" y1="403.423" y2="419.172" gradientUnits="userSpaceOnUse"><stop stop-color="#5CF8CF" stop-opacity=".25"/><stop offset="1" stop-opacity="0"/></linearGradient><linearGradient id="t" x1="267.313" x2="275.517" y1="258.998" y2="266.211" gradientUnits="userSpaceOnUse"><stop stop-color="#5CF8CF" stop-opacity=".25"/><stop offset="1" stop-opacity="0"/></linearGradient><linearGradient id="v" x1="267.313" x2="275.517" y1="277.059" y2="284.272" gradientUnits="userSpaceOnUse"><stop stop-color="#5CF8CF" stop-opacity=".25"/><stop offset="1" stop-opacity="0"/></linearGradient><linearGradient id="x" x1="267.313" x2="275.517" y1="295.119" y2="302.332" gradientUnits="userSpaceOnUse"><stop stop-color="#5CF8CF" stop-opacity=".25"/><stop offset="1" stop-opacity="0"/></linearGradient><linearGradient id="z" x1="267.313" x2="275.517" y1="313.18" y2="320.393" gradientUnits="userSpaceOnUse"><stop stop-color="#5CF8CF" stop-opacity=".25"/><stop offset="1" stop-opacity="0"/></linearGradient><linearGradient id="B" x1="267.313" x2="275.517" y1="331.241" y2="338.454" gradientUnits="userSpaceOnUse"><stop stop-color="#5CF8CF" stop-opacity=".25"/><stop offset="1" stop-opacity="0"/></linearGradient><linearGradient id="D" x1="267.313" x2="275.517" y1="349.302" y2="356.515" gradientUnits="userSpaceOnUse"><stop stop-color="#5CF8CF" stop-opacity=".25"/><stop offset="1" stop-opacity="0"/></linearGradient><linearGradient id="F" x1="267.312" x2="275.516" y1="367.363" y2="374.576" gradientUnits="userSpaceOnUse"><stop stop-color="#5CF8CF" stop-opacity=".25"/><stop offset="1" stop-opacity="0"/></linearGradient><linearGradient id="H" x1="267.313" x2="275.517" y1="385.424" y2="392.636" gradientUnits="userSpaceOnUse"><stop stop-color="#5CF8CF" stop-opacity=".25"/><stop offset="1" stop-opacity="0"/></linearGradient><linearGradient id="J" x1="267.313" x2="275.517" y1="403.485" y2="410.697" gradientUnits="userSpaceOnUse"><stop stop-color="#5CF8CF" stop-opacity=".25"/><stop offset="1" stop-opacity="0"/></linearGradient><linearGradient id="L" x1="267.313" x2="275.517" y1="421.545" y2="428.758" gradientUnits="userSpaceOnUse"><stop stop-color="#5CF8CF" stop-opacity=".25"/><stop offset="1" stop-opacity="0"/></linearGradient><linearGradient id="N" x1="185.038" x2="208.943" y1="336.605" y2="349.786" gradientUnits="userSpaceOnUse"><stop stop-color="#5CF8CF" stop-opacity=".25"/><stop offset="1" stop-opacity="0"/></linearGradient><linearGradient id="P" x1="183.954" x2="183.954" y1="310.156" y2="322.226" gradientUnits="userSpaceOnUse"><stop stop-color="#35FEB7"/><stop offset="1" stop-color="#35FEB7" stop-opacity=".32"/></linearGradient><linearGradient id="R" x1="180.449" x2="186.553" y1="311.012" y2="313.937" gradientUnits="userSpaceOnUse"><stop stop-color="#fff" stop-opacity=".32"/><stop offset="1" stop-color="#fff" stop-opacity="0"/></linearGradient><linearGradient id="T" x1="143.32" x2="139.166" y1="313.748" y2="322.426" gradientUnits="userSpaceOnUse"><stop stop-color="#5CF8CF" stop-opacity=".25"/><stop offset="1" stop-opacity="0"/></linearGradient><linearGradient id="V" x1="143.32" x2="139.166" y1="342.354" y2="351.032" gradientUnits="userSpaceOnUse"><stop stop-color="#5CF8CF" stop-opacity=".25"/><stop offset="1" stop-opacity="0"/></linearGradient><linearGradient id="X" x1="143.32" x2="139.166" y1="370.962" y2="379.639" gradientUnits="userSpaceOnUse"><stop stop-color="#5CF8CF" stop-opacity=".25"/><stop offset="1" stop-opacity="0"/></linearGradient><linearGradient id="Z" x1="166.752" x2="179.648" y1="476.637" y2="482.821" gradientUnits="userSpaceOnUse"><stop stop-color="#5CF8CF" stop-opacity=".25"/><stop offset="1" stop-opacity="0"/></linearGradient><linearGradient id="ab" x1="124.215" x2="137.11" y1="476.637" y2="482.821" gradientUnits="userSpaceOnUse"><stop stop-color="#5CF8CF" stop-opacity=".25"/><stop offset="1" stop-opacity="0"/></linearGradient><linearGradient id="ad" x1="81.677" x2="94.573" y1="476.637" y2="482.821" gradientUnits="userSpaceOnUse"><stop stop-color="#5CF8CF" stop-opacity=".25"/><stop offset="1" stop-opacity="0"/></linearGradient><linearGradient id="af" x1="350.394" x2="336.096" y1="154.31" y2="182.994" gradientUnits="userSpaceOnUse"><stop stop-color="#35FEB7"/><stop offset="1" stop-color="#00DDB3" stop-opacity=".32"/></linearGradient><linearGradient id="ai" x1="342.653" x2="336.288" y1="165.448" y2="196.325" gradientUnits="userSpaceOnUse"><stop stop-color="#5CF8CF" stop-opacity=".25"/><stop offset="1" stop-opacity="0"/></linearGradient><filter id="b" width="83.511" height="7.405" x="148.4" y="178.515" color-interpolation-filters="sRGB" filterUnits="userSpaceOnUse"><feFlood flood-opacity="0" result="BackgroundImageFix"/><feGaussianBlur in="BackgroundImageFix" stdDeviation="1.181"/><feComposite in2="SourceAlpha" operator="in" result="effect1_backgroundBlur_1874_5548"/><feBlend in="SourceGraphic" in2="effect1_backgroundBlur_1874_5548" result="shape"/></filter><filter id="d" width="74.599" height="53.392" x="114.89" y="161.3" color-interpolation-filters="sRGB" filterUnits="userSpaceOnUse"><feFlood flood-opacity="0" result="BackgroundImageFix"/><feColorMatrix in="SourceAlpha" result="hardAlpha" values="0 0 0 0 0 0 0 0 0 0 0 0 0 0 0 0 0 0 127 0"/><feOffset dy="5.364"/><feGaussianBlur stdDeviation="8.046"/><feComposite in2="hardAlpha" operator="out"/><feColorMatrix values="0 0 0 0 0 0 0 0 0 0 0 0 0 0 0 0 0 0 0.64 0"/><feBlend in2="BackgroundImageFix" result="effect1_dropShadow_1874_5548"/><feBlend in="SourceGraphic" in2="effect1_dropShadow_1874_5548" result="shape"/></filter><filter id="f" width="23.782" height="23.782" x="140.3" y="170.741" color-interpolation-filters="sRGB" filterUnits="userSpaceOnUse"><feFlood flood-opacity="0" result="BackgroundImageFix"/><feGaussianBlur in="BackgroundImageFix" stdDeviation=".644"/><feComposite in2="SourceAlpha" operator="in" result="effect1_backgroundBlur_1874_5548"/><feBlend in="SourceGraphic" in2="effect1_backgroundBlur_1874_5548" result="shape"/></filter><filter id="h" width="277.81" height="277.6" x="256.95" y="215.493" color-interpolation-filters="sRGB" filterUnits="userSpaceOnUse"><feFlood flood-opacity="0" result="BackgroundImageFix"/><feGaussianBlur in="BackgroundImageFix" stdDeviation=".644"/><feComposite in2="SourceAlpha" operator="in" result="effect1_backgroundBlur_1874_5548"/><feColorMatrix in="SourceAlpha" result="hardAlpha" values="0 0 0 0 0 0 0 0 0 0 0 0 0 0 0 0 0 0 127 0"/><feOffset dy="5.364"/><feGaussianBlur stdDeviation="8.046"/><feComposite in2="hardAlpha" operator="out"/><feColorMatrix values="0 0 0 0 0 0 0 0 0 0 0 0 0 0 0 0 0 0 0.64 0"/><feBlend in2="effect1_backgroundBlur_1874_5548" result="effect2_dropShadow_1874_5548"/><feBlend in="SourceGraphic" in2="effect2_dropShadow_1874_5548" result="shape"/></filter><filter id="k" width="283.174" height="282.964" x="254.267" y="212.811" color-interpolation-filters="sRGB" filterUnits="userSpaceOnUse"><feFlood flood-opacity="0" result="BackgroundImageFix"/><feGaussianBlur in="BackgroundImageFix" stdDeviation=".644"/><feComposite in2="SourceAlpha" operator="in" result="effect1_backgroundBlur_1874_5548"/><feColorMatrix in="SourceAlpha" result="hardAlpha" values="0 0 0 0 0 0 0 0 0 0 0 0 0 0 0 0 0 0 127 0"/><feOffset dy="5.364"/><feGaussianBlur stdDeviation="8.046"/><feComposite in2="hardAlpha" operator="out"/><feColorMatrix values="0 0 0 0 0 0 0 0 0 0 0 0 0 0 0 0 0 0 0.64 0"/><feBlend in2="effect1_backgroundBlur_1874_5548" result="effect2_dropShadow_1874_5548"/><feBlend in="SourceGraphic" in2="effect2_dropShadow_1874_5548" result="shape"/></filter><filter id="m" width="49.66" height="79.37" x="220.428" y="258.641" color-interpolation-filters="sRGB" filterUnits="userSpaceOnUse"><feFlood flood-opacity="0" result="BackgroundImageFix"/><feGaussianBlur in="BackgroundImageFix" stdDeviation="1.181"/><feComposite in2="SourceAlpha" operator="in" result="effect1_backgroundBlur_1874_5548"/><feBlend in="SourceGraphic" in2="effect1_backgroundBlur_1874_5548" result="shape"/></filter><filter id="o" width="49.66" height="79.37" x="220.428" y="331.946" color-interpolation-filters="sRGB" filterUnits="userSpaceOnUse"><feFlood flood-opacity="0" result="BackgroundImageFix"/><feGaussianBlur in="BackgroundImageFix" stdDeviation="1.181"/><feComposite in2="SourceAlpha" operator="in" result="effect1_backgroundBlur_1874_5548"/><feBlend in="SourceGraphic" in2="effect1_backgroundBlur_1874_5548" result="shape"/></filter><filter id="q" width="49.66" height="62.384" x="220.428" y="369.131" color-interpolation-filters="sRGB" filterUnits="userSpaceOnUse"><feFlood flood-opacity="0" result="BackgroundImageFix"/><feGaussianBlur in="BackgroundImageFix" stdDeviation="1.181"/><feComposite in2="SourceAlpha" operator="in" result="effect1_backgroundBlur_1874_5548"/><feBlend in="SourceGraphic" in2="effect1_backgroundBlur_1874_5548" result="shape"/></filter><filter id="s" width="55.578" height="44.934" x="246.316" y="247.365" color-interpolation-filters="sRGB" filterUnits="userSpaceOnUse"><feFlood flood-opacity="0" result="BackgroundImageFix"/><feColorMatrix in="SourceAlpha" result="hardAlpha" values="0 0 0 0 0 0 0 0 0 0 0 0 0 0 0 0 0 0 127 0"/><feOffset dy="5.364"/><feGaussianBlur stdDeviation="8.046"/><feComposite in2="hardAlpha" operator="out"/><feColorMatrix values="0 0 0 0 0 0 0 0 0 0 0 0 0 0 0 0 0 0 0.64 0"/><feBlend in2="BackgroundImageFix" result="effect1_dropShadow_1874_5548"/><feBlend in="SourceGraphic" in2="effect1_dropShadow_1874_5548" result="shape"/></filter><filter id="u" width="55.578" height="44.934" x="246.316" y="265.426" color-interpolation-filters="sRGB" filterUnits="userSpaceOnUse"><feFlood flood-opacity="0" result="BackgroundImageFix"/><feColorMatrix in="SourceAlpha" result="hardAlpha" values="0 0 0 0 0 0 0 0 0 0 0 0 0 0 0 0 0 0 127 0"/><feOffset dy="5.364"/><feGaussianBlur stdDeviation="8.046"/><feComposite in2="hardAlpha" operator="out"/><feColorMatrix values="0 0 0 0 0 0 0 0 0 0 0 0 0 0 0 0 0 0 0.64 0"/><feBlend in2="BackgroundImageFix" result="effect1_dropShadow_1874_5548"/><feBlend in="SourceGraphic" in2="effect1_dropShadow_1874_5548" result="shape"/></filter><filter id="w" width="55.578" height="44.934" x="246.316" y="283.487" color-interpolation-filters="sRGB" filterUnits="userSpaceOnUse"><feFlood flood-opacity="0" result="BackgroundImageFix"/><feColorMatrix in="SourceAlpha" result="hardAlpha" values="0 0 0 0 0 0 0 0 0 0 0 0 0 0 0 0 0 0 127 0"/><feOffset dy="5.364"/><feGaussianBlur stdDeviation="8.046"/><feComposite in2="hardAlpha" operator="out"/><feColorMatrix values="0 0 0 0 0 0 0 0 0 0 0 0 0 0 0 0 0 0 0.64 0"/><feBlend in2="BackgroundImageFix" result="effect1_dropShadow_1874_5548"/><feBlend in="SourceGraphic" in2="effect1_dropShadow_1874_5548" result="shape"/></filter><filter id="y" width="55.578" height="44.934" x="246.316" y="301.548" color-interpolation-filters="sRGB" filterUnits="userSpaceOnUse"><feFlood flood-opacity="0" result="BackgroundImageFix"/><feColorMatrix in="SourceAlpha" result="hardAlpha" values="0 0 0 0 0 0 0 0 0 0 0 0 0 0 0 0 0 0 127 0"/><feOffset dy="5.364"/><feGaussianBlur stdDeviation="8.046"/><feComposite in2="hardAlpha" operator="out"/><feColorMatrix values="0 0 0 0 0 0 0 0 0 0 0 0 0 0 0 0 0 0 0.64 0"/><feBlend in2="BackgroundImageFix" result="effect1_dropShadow_1874_5548"/><feBlend in="SourceGraphic" in2="effect1_dropShadow_1874_5548" result="shape"/></filter><filter id="A" width="55.578" height="44.934" x="246.316" y="319.609" color-interpolation-filters="sRGB" filterUnits="userSpaceOnUse"><feFlood flood-opacity="0" result="BackgroundImageFix"/><feColorMatrix in="SourceAlpha" result="hardAlpha" values="0 0 0 0 0 0 0 0 0 0 0 0 0 0 0 0 0 0 127 0"/><feOffset dy="5.364"/><feGaussianBlur stdDeviation="8.046"/><feComposite in2="hardAlpha" operator="out"/><feColorMatrix values="0 0 0 0 0 0 0 0 0 0 0 0 0 0 0 0 0 0 0.64 0"/><feBlend in2="BackgroundImageFix" result="effect1_dropShadow_1874_5548"/><feBlend in="SourceGraphic" in2="effect1_dropShadow_1874_5548" result="shape"/></filter><filter id="C" width="55.578" height="44.934" x="246.316" y="337.67" color-interpolation-filters="sRGB" filterUnits="userSpaceOnUse"><feFlood flood-opacity="0" result="BackgroundImageFix"/><feColorMatrix in="SourceAlpha" result="hardAlpha" values="0 0 0 0 0 0 0 0 0 0 0 0 0 0 0 0 0 0 127 0"/><feOffset dy="5.364"/><feGaussianBlur stdDeviation="8.046"/><feComposite in2="hardAlpha" operator="out"/><feColorMatrix values="0 0 0 0 0 0 0 0 0 0 0 0 0 0 0 0 0 0 0.64 0"/><feBlend in2="BackgroundImageFix" result="effect1_dropShadow_1874_5548"/><feBlend in="SourceGraphic" in2="effect1_dropShadow_1874_5548" result="shape"/></filter><filter id="E" width="55.578" height="44.934" x="246.316" y="355.731" color-interpolation-filters="sRGB" filterUnits="userSpaceOnUse"><feFlood flood-opacity="0" result="BackgroundImageFix"/><feColorMatrix in="SourceAlpha" result="hardAlpha" values="0 0 0 0 0 0 0 0 0 0 0 0 0 0 0 0 0 0 127 0"/><feOffset dy="5.364"/><feGaussianBlur stdDeviation="8.046"/><feComposite in2="hardAlpha" operator="out"/><feColorMatrix values="0 0 0 0 0 0 0 0 0 0 0 0 0 0 0 0 0 0 0.64 0"/><feBlend in2="BackgroundImageFix" result="effect1_dropShadow_1874_5548"/><feBlend in="SourceGraphic" in2="effect1_dropShadow_1874_5548" result="shape"/></filter><filter id="G" width="55.578" height="44.934" x="246.316" y="373.791" color-interpolation-filters="sRGB" filterUnits="userSpaceOnUse"><feFlood flood-opacity="0" result="BackgroundImageFix"/><feColorMatrix in="SourceAlpha" result="hardAlpha" values="0 0 0 0 0 0 0 0 0 0 0 0 0 0 0 0 0 0 127 0"/><feOffset dy="5.364"/><feGaussianBlur stdDeviation="8.046"/><feComposite in2="hardAlpha" operator="out"/><feColorMatrix values="0 0 0 0 0 0 0 0 0 0 0 0 0 0 0 0 0 0 0.64 0"/><feBlend in2="BackgroundImageFix" result="effect1_dropShadow_1874_5548"/><feBlend in="SourceGraphic" in2="effect1_dropShadow_1874_5548" result="shape"/></filter><filter id="I" width="55.578" height="44.934" x="246.316" y="391.852" color-interpolation-filters="sRGB" filterUnits="userSpaceOnUse"><feFlood flood-opacity="0" result="BackgroundImageFix"/><feColorMatrix in="SourceAlpha" result="hardAlpha" values="0 0 0 0 0 0 0 0 0 0 0 0 0 0 0 0 0 0 127 0"/><feOffset dy="5.364"/><feGaussianBlur stdDeviation="8.046"/><feComposite in2="hardAlpha" operator="out"/><feColorMatrix values="0 0 0 0 0 0 0 0 0 0 0 0 0 0 0 0 0 0 0.64 0"/><feBlend in2="BackgroundImageFix" result="effect1_dropShadow_1874_5548"/><feBlend in="SourceGraphic" in2="effect1_dropShadow_1874_5548" result="shape"/></filter><filter id="K" width="55.578" height="44.934" x="246.316" y="409.913" color-interpolation-filters="sRGB" filterUnits="userSpaceOnUse"><feFlood flood-opacity="0" result="BackgroundImageFix"/><feColorMatrix in="SourceAlpha" result="hardAlpha" values="0 0 0 0 0 0 0 0 0 0 0 0 0 0 0 0 0 0 127 0"/><feOffset dy="5.364"/><feGaussianBlur stdDeviation="8.046"/><feComposite in2="hardAlpha" operator="out"/><feColorMatrix values="0 0 0 0 0 0 0 0 0 0 0 0 0 0 0 0 0 0 0.64 0"/><feBlend in2="BackgroundImageFix" result="effect1_dropShadow_1874_5548"/><feBlend in="SourceGraphic" in2="effect1_dropShadow_1874_5548" result="shape"/></filter><filter id="M" width="95.382" height="67.431" x="131.641" y="313.354" color-interpolation-filters="sRGB" filterUnits="userSpaceOnUse"><feFlood flood-opacity="0" result="BackgroundImageFix"/><feGaussianBlur in="BackgroundImageFix" stdDeviation="1.181"/><feComposite in2="SourceAlpha" operator="in" result="effect1_backgroundBlur_1874_5548"/><feBlend in="SourceGraphic" in2="effect1_backgroundBlur_1874_5548" result="shape"/></filter><filter id="O" width="21.725" height="21.725" x="173.091" y="305.329" color-interpolation-filters="sRGB" filterUnits="userSpaceOnUse"><feFlood flood-opacity="0" result="BackgroundImageFix"/><feBlend in="SourceGraphic" in2="BackgroundImageFix" result="shape"/><feGaussianBlur result="effect1_foregroundBlur_1874_5548" stdDeviation="2.414"/></filter><filter id="Q" width="21.725" height="21.725" x="173.091" y="305.329" color-interpolation-filters="sRGB" filterUnits="userSpaceOnUse"><feFlood flood-opacity="0" result="BackgroundImageFix"/><feBlend in="SourceGraphic" in2="BackgroundImageFix" result="shape"/><feGaussianBlur result="effect1_foregroundBlur_1874_5548" stdDeviation="2.414"/></filter><filter id="S" width="21.032" height="21.017" x="125.437" y="308.22" color-interpolation-filters="sRGB" filterUnits="userSpaceOnUse"><feFlood flood-opacity="0" result="BackgroundImageFix"/><feGaussianBlur in="BackgroundImageFix" stdDeviation=".966"/><feComposite in2="SourceAlpha" operator="in" result="effect1_backgroundBlur_1874_5548"/><feBlend in="SourceGraphic" in2="effect1_backgroundBlur_1874_5548" result="shape"/></filter><filter id="U" width="21.032" height="21.017" x="125.437" y="336.827" color-interpolation-filters="sRGB" filterUnits="userSpaceOnUse"><feFlood flood-opacity="0" result="BackgroundImageFix"/><feGaussianBlur in="BackgroundImageFix" stdDeviation=".966"/><feComposite in2="SourceAlpha" operator="in" result="effect1_backgroundBlur_1874_5548"/><feBlend in="SourceGraphic" in2="effect1_backgroundBlur_1874_5548" result="shape"/></filter><filter id="W" width="21.032" height="21.017" x="125.437" y="365.434" color-interpolation-filters="sRGB" filterUnits="userSpaceOnUse"><feFlood flood-opacity="0" result="BackgroundImageFix"/><feGaussianBlur in="BackgroundImageFix" stdDeviation=".966"/><feComposite in2="SourceAlpha" operator="in" result="effect1_backgroundBlur_1874_5548"/><feBlend in="SourceGraphic" in2="effect1_backgroundBlur_1874_5548" result="shape"/></filter><filter id="Y" width="29.371" height="29.349" x="159.473" y="472.898" color-interpolation-filters="sRGB" filterUnits="userSpaceOnUse"><feFlood flood-opacity="0" result="BackgroundImageFix"/><feGaussianBlur in="BackgroundImageFix" stdDeviation=".966"/><feComposite in2="SourceAlpha" operator="in" result="effect1_backgroundBlur_1874_5548"/><feBlend in="SourceGraphic" in2="effect1_backgroundBlur_1874_5548" result="shape"/></filter><filter id="aa" width="29.371" height="29.349" x="116.936" y="472.898" color-interpolation-filters="sRGB" filterUnits="userSpaceOnUse"><feFlood flood-opacity="0" result="BackgroundImageFix"/><feGaussianBlur in="BackgroundImageFix" stdDeviation=".966"/><feComposite in2="SourceAlpha" operator="in" result="effect1_backgroundBlur_1874_5548"/><feBlend in="SourceGraphic" in2="effect1_backgroundBlur_1874_5548" result="shape"/></filter><filter id="ac" width="29.371" height="29.349" x="74.398" y="472.898" color-interpolation-filters="sRGB" filterUnits="userSpaceOnUse"><feFlood flood-opacity="0" result="BackgroundImageFix"/><feGaussianBlur in="BackgroundImageFix" stdDeviation=".966"/><feComposite in2="SourceAlpha" operator="in" result="effect1_backgroundBlur_1874_5548"/><feBlend in="SourceGraphic" in2="effect1_backgroundBlur_1874_5548" result="shape"/></filter><filter id="ae" width="152.496" height="83.954" x="214.782" y="143.867" color-interpolation-filters="sRGB" filterUnits="userSpaceOnUse"><feFlood flood-opacity="0" result="BackgroundImageFix"/><feGaussianBlur in="BackgroundImageFix" stdDeviation=".644"/><feComposite in2="SourceAlpha" operator="in" result="effect1_backgroundBlur_1874_5548"/><feColorMatrix in="SourceAlpha" result="hardAlpha" values="0 0 0 0 0 0 0 0 0 0 0 0 0 0 0 0 0 0 127 0"/><feOffset dy="5.364"/><feGaussianBlur stdDeviation="8.046"/><feComposite in2="hardAlpha" operator="out"/><feColorMatrix values="0 0 0 0 0 0 0 0 0 0 0 0 0 0 0 0 0 0 0.64 0"/><feBlend in2="effect1_backgroundBlur_1874_5548" result="effect2_dropShadow_1874_5548"/><feBlend in="SourceGraphic" in2="effect2_dropShadow_1874_5548" result="shape"/></filter><filter id="ah" width="157.86" height="89.318" x="212.1" y="141.185" color-interpolation-filters="sRGB" filterUnits="userSpaceOnUse"><feFlood flood-opacity="0" result="BackgroundImageFix"/><feGaussianBlur in="BackgroundImageFix" stdDeviation=".644"/><feComposite in2="SourceAlpha" operator="in" result="effect1_backgroundBlur_1874_5548"/><feColorMatrix in="SourceAlpha" result="hardAlpha" values="0 0 0 0 0 0 0 0 0 0 0 0 0 0 0 0 0 0 127 0"/><feOffset dy="5.364"/><feGaussianBlur stdDeviation="8.046"/><feComposite in2="hardAlpha" operator="out"/><feColorMatrix values="0 0 0 0 0 0 0 0 0 0 0 0 0 0 0 0 0 0 0.64 0"/><feBlend in2="effect1_backgroundBlur_1874_5548" result="effect2_dropShadow_1874_5548"/><feBlend in="SourceGraphic" in2="effect2_dropShadow_1874_5548" result="shape"/></filter><radialGradient id="j" cx="0" cy="0" r="1" gradientTransform="matrix(-108.9955 -7.6695 9.38576 -133.3862 392.784 351.318)" gradientUnits="userSpaceOnUse"><stop stop-color="#00DDB3" stop-opacity="0"/><stop offset="1" stop-color="#35FEB7"/></radialGradient><radialGradient id="ag" cx="0" cy="0" r="1" gradientTransform="matrix(3.75971 -22.97227 64.00012 10.47446 289.859 179.832)" gradientUnits="userSpaceOnUse"><stop stop-color="#00DDB3" stop-opacity="0"/><stop offset="1" stop-color="#35FEB7"/></radialGradient><clipPath id="a"><path fill="#fff" d="M76 109h232v446.566H76z"/></clipPath></defs></svg>