<svg xmlns:xlink="http://www.w3.org/1999/xlink" xmlns="http://www.w3.org/2000/svg" class="c-AsWAM c-AsWAM-faLzkq-size-md c-AsWAM-ifygAeV-css" width="32"  height="32" ><defs><symbol fill="none" xmlns="http://www.w3.org/2000/svg" viewBox="0 0 32 32" id="icon-search">
    <path fill-rule="evenodd" clip-rule="evenodd" d="M13.3333 5C11.1232 5 9.00358 5.87797 7.44078 7.44078C5.87797 9.00358 5 11.1232 5 13.3333C5 14.4277 5.21555 15.5113 5.63434 16.5224C6.05313 17.5334 6.66696 18.4521 7.44078 19.2259C8.2146 19.9997 9.13326 20.6135 10.1443 21.0323C11.1554 21.4511 12.239 21.6667 13.3333 21.6667C14.4277 21.6667 15.5113 21.4511 16.5224 21.0323C17.5334 20.6135 18.4521 19.9997 19.2259 19.2259C19.9997 18.4521 20.6135 17.5334 21.0323 16.5224C21.4511 15.5113 21.6667 14.4277 21.6667 13.3333C21.6667 11.1232 20.7887 9.00358 19.2259 7.44078C17.6631 5.87797 15.5435 5 13.3333 5ZM6.02656 6.02656C7.96444 4.08869 10.5928 3 13.3333 3C16.0739 3 18.7022 4.08869 20.6401 6.02656C22.578 7.96444 23.6667 10.5928 23.6667 13.3333C23.6667 14.6903 23.3994 16.034 22.8801 17.2877C22.4888 18.2324 21.9602 19.112 21.3129 19.8987L28.7071 27.2929C29.0976 27.6834 29.0976 28.3166 28.7071 28.7071C28.3166 29.0976 27.6834 29.0976 27.2929 28.7071L19.8987 21.3129C19.112 21.9602 18.2324 22.4888 17.2877 22.8801C16.034 23.3994 14.6903 23.6667 13.3333 23.6667C11.9763 23.6667 10.6326 23.3994 9.37894 22.8801C8.12524 22.3608 6.9861 21.5996 6.02656 20.6401C5.06702 19.6806 4.30588 18.5414 3.78658 17.2877C3.26728 16.034 3 14.6903 3 13.3333C3 10.5928 4.08869 7.96444 6.02656 6.02656Z" fill="currentColor"></path>
  </symbol></defs><use href="/assets/icons-sprite.svg#icon-search" xlink:href="#icon-search"></use></svg>