<svg xmlns:xlink="http://www.w3.org/1999/xlink" xmlns="http://www.w3.org/2000/svg" class="c-AsWAM c-AsWAM-faLzkq-size-md c-AsWAM-ibOmiok-css" width="32"  height="32" ><defs><symbol fill="none" xmlns="http://www.w3.org/2000/svg" viewBox="0 0 32 32" id="icon-weblink">
    <path fill-rule="evenodd" clip-rule="evenodd" d="M16 5C9.92487 5 5 9.92487 5 16C5 22.0751 9.92487 27 16 27C22.0751 27 27 22.0751 27 16C27 9.92487 22.0751 5 16 5ZM3 16C3 8.8203 8.8203 3 16 3C23.1797 3 29 8.8203 29 16C29 23.1797 23.1797 29 16 29C8.8203 29 3 23.1797 3 16Z" fill="currentColor"></path>
    <path fill-rule="evenodd" clip-rule="evenodd" d="M12.1601 8.00036C11.0508 9.99718 10.3333 12.8235 10.3333 16C10.3333 19.1765 11.0508 22.0028 12.1601 23.9996C13.2883 26.0303 14.6871 27 16 27C17.3129 27 18.7117 26.0303 19.8399 23.9996C20.9492 22.0028 21.6667 19.1765 21.6667 16C21.6667 12.8235 20.9492 9.99718 19.8399 8.00036C18.7117 5.96966 17.3129 5 16 5C14.6871 5 13.2883 5.96966 12.1601 8.00036ZM10.4118 7.02908C11.6965 4.71663 13.631 3 16 3C18.369 3 20.3035 4.71663 21.5882 7.02908C22.8917 9.3754 23.6667 12.5491 23.6667 16C23.6667 19.4509 22.8917 22.6246 21.5882 24.9709C20.3035 27.2834 18.369 29 16 29C13.631 29 11.6965 27.2834 10.4118 24.9709C9.10828 22.6246 8.33333 19.4509 8.33333 16C8.33333 12.5491 9.10828 9.3754 10.4118 7.02908Z" fill="currentColor"></path>
    <path fill-rule="evenodd" clip-rule="evenodd" d="M16 3C16.5523 3 17 3.44772 17 4V28C17 28.5523 16.5523 29 16 29C15.4477 29 15 28.5523 15 28V4C15 3.44772 15.4477 3 16 3Z" fill="currentColor"></path>
    <path fill-rule="evenodd" clip-rule="evenodd" d="M3.69271 20C3.69271 19.4477 4.14042 19 4.69271 19H27.306C27.8583 19 28.306 19.4477 28.306 20C28.306 20.5523 27.8583 21 27.306 21H4.69271C4.14042 21 3.69271 20.5523 3.69271 20Z" fill="currentColor"></path>
    <path fill-rule="evenodd" clip-rule="evenodd" d="M3.69271 12C3.69271 11.4477 4.14042 11 4.69271 11H27.306C27.8583 11 28.306 11.4477 28.306 12C28.306 12.5523 27.8583 13 27.306 13H4.69271C4.14042 13 3.69271 12.5523 3.69271 12Z" fill="currentColor"></path>
  </symbol></defs><use href="/assets/icons-sprite.svg#icon-weblink" xlink:href="#icon-weblink"></use></svg>