<svg xmlns:xlink="http://www.w3.org/1999/xlink" xmlns="http://www.w3.org/2000/svg" class="c-AsWAM c-AsWAM-faLzkq-size-md c-AsWAM-ibOmiok-css" width="32"  height="32" ><defs><symbol fill="none" xmlns="http://www.w3.org/2000/svg" viewBox="0 0 32 32" id="icon-social-black-dribbble">
    <path fill-rule="evenodd" clip-rule="evenodd" d="M16 4C9.37229 4 4 9.3727 4 16C4 22.6273 9.37229 28 16 28C22.6273 28 28 22.6273 28 16C28 9.3727 22.6273 4 16 4ZM26.1232 15.8673C24.7511 15.4712 23.3011 15.2585 21.8019 15.2585C20.8962 15.2585 20.0084 15.3359 19.1453 15.4849C18.8655 14.8168 18.5754 14.1773 18.2823 13.5692C22.3814 11.8159 23.8723 9.63616 23.8723 9.63616C25.2536 11.3423 26.0926 13.5072 26.1232 15.8673ZM22.716 8.42473C20.9291 6.83899 18.5763 5.87663 16.0001 5.87663C15.1888 5.87663 14.3995 5.97224 13.6432 6.15271C13.6432 6.15271 15.4926 8.30304 17.441 11.9199C19.4597 11.1206 21.3509 9.99804 22.716 8.42473ZM11.6161 6.87223C11.6161 6.87223 13.386 9.14301 15.3099 12.6419C10.6765 13.9739 6.09393 13.9031 6.09393 13.9031C6.74834 10.7962 8.82705 8.21417 11.6161 6.87223ZM5.87888 15.7354C5.87681 15.8235 5.87557 15.9117 5.87557 16.0003C5.87557 18.6084 6.86194 20.986 8.48203 22.7812C10.3972 19.6084 13.4143 17.1758 17.003 16.0127C16.7406 15.4353 16.4715 14.8761 16.2025 14.3376C13.5948 15.1642 10.2085 15.7586 5.87888 15.7354ZM16.0002 26.124C13.6926 26.124 11.5662 25.3521 9.86296 24.0528C11.5667 21.0477 14.3726 18.7492 17.7304 17.7074C18.6902 20.0808 19.4908 22.6864 19.872 25.3566C18.6795 25.8517 17.3715 26.124 16.0002 26.124ZM19.8296 17.2331C20.6185 19.4033 21.2721 21.8202 21.6235 24.4192C23.8786 22.9105 25.4937 20.5192 25.9743 17.7389C24.6588 17.3184 23.2569 17.092 21.8015 17.092C21.1322 17.092 20.4737 17.14 19.8296 17.2331Z" fill="currentColor"></path>
  </symbol></defs><use href="/assets/icons-sprite.svg#icon-social-black-dribbble" xlink:href="#icon-social-black-dribbble"></use></svg>