<svg xmlns:xlink="http://www.w3.org/1999/xlink" xmlns="http://www.w3.org/2000/svg" class="c-AsWAM c-AsWAM-faLzkq-size-md c-AsWAM-ibOmiok-css" width="32"  height="32" ><defs><symbol fill="none" xmlns="http://www.w3.org/2000/svg" viewBox="0 0 32 32" id="icon-social-black-instagram">
    <path d="M11.9999 15.9999C11.9999 15.2088 12.2345 14.4354 12.674 13.7776C13.1136 13.1198 13.7383 12.6071 14.4692 12.3044C15.2001 12.0017 16.0043 11.9224 16.7802 12.0768C17.5562 12.2311 18.2689 12.6121 18.8283 13.1715C19.3877 13.7309 19.7686 14.4436 19.923 15.2195C20.0773 15.9954 19.9981 16.7997 19.6954 17.5306C19.3926 18.2615 18.8799 18.8862 18.2221 19.3257C17.5644 19.7653 16.791 19.9998 15.9999 19.9998C14.939 19.9998 13.9216 19.5784 13.1715 18.8283C12.4213 18.0781 11.9999 17.0607 11.9999 15.9999ZM9.83735 15.9999C9.83735 17.2185 10.1987 18.4098 10.8758 19.4231C11.5528 20.4364 12.5151 21.2262 13.641 21.6926C14.7669 22.159 16.0058 22.2811 17.201 22.0434C18.3963 21.8057 19.4942 21.2189 20.356 20.3572C21.2178 19.4955 21.8047 18.3977 22.0425 17.2024C22.2804 16.0072 22.1584 14.7683 21.6922 13.6423C21.2259 12.5164 20.4362 11.554 19.423 10.8769C18.4098 10.1997 17.2185 9.8382 15.9999 9.83806C15.1907 9.83803 14.3894 9.99739 13.6418 10.307C12.8942 10.6167 12.2149 11.0706 11.6427 11.6427C11.0706 12.2149 10.6167 12.8942 10.307 13.6418C9.99739 14.3894 9.83803 15.1907 9.83806 15.9999H9.83735ZM20.9645 9.59383C20.9644 9.87863 21.0488 10.1571 21.207 10.3939C21.3651 10.6308 21.5899 10.8154 21.853 10.9245C22.1161 11.0336 22.4056 11.0622 22.685 11.0067C22.9643 10.9512 23.221 10.8142 23.4224 10.6129C23.6239 10.4115 23.7611 10.155 23.8168 9.87569C23.8724 9.59637 23.844 9.30683 23.7351 9.04367C23.6262 8.78052 23.4417 8.55556 23.2049 8.39725C22.9682 8.23895 22.6898 8.15441 22.405 8.15431C22.0232 8.1545 21.6571 8.30621 21.3871 8.57611C21.1171 8.84602 20.9653 9.21206 20.965 9.59383H20.9645ZM11.1529 25.7676C10.3919 25.7589 9.63806 25.6193 8.92442 25.3549C8.40322 25.1622 7.93166 24.8555 7.5442 24.4572C7.1453 24.0706 6.83851 23.5992 6.64656 23.0779C6.38172 22.3644 6.24179 21.6105 6.23292 20.8495C6.1748 19.5846 6.16233 19.2046 6.16233 16.0001C6.16233 12.7957 6.1748 12.4166 6.23292 11.1508C6.24248 10.3898 6.38206 9.63617 6.64562 8.9223C6.83827 8.4011 7.14496 7.92954 7.54326 7.54208C7.93004 7.14296 8.4018 6.83615 8.92348 6.64444C9.63737 6.37973 10.3915 6.24004 11.1529 6.23151C12.4178 6.17339 12.7978 6.16092 15.9999 6.16092C19.202 6.16092 19.5834 6.17339 20.8492 6.23151C21.6102 6.24106 22.3638 6.38064 23.0777 6.64421C23.5991 6.8365 24.0707 7.14324 24.4579 7.54185C24.8565 7.92905 25.1633 8.40069 25.3556 8.92207C25.6201 9.63567 25.7597 10.3895 25.7683 11.1505C25.8264 12.4164 25.8388 12.7954 25.8388 15.9999C25.8388 19.2043 25.8273 19.5834 25.7683 20.8492C25.7591 21.6102 25.6195 22.3639 25.3556 23.0777C25.1559 23.5952 24.85 24.0652 24.4577 24.4573C24.0654 24.8495 23.5953 25.1551 23.0777 25.3546C22.3641 25.6191 21.6103 25.7587 20.8492 25.7673C19.5843 25.8254 19.2043 25.8379 15.9999 25.8379C12.7954 25.8379 12.4164 25.8264 11.1529 25.7673V25.7676ZM11.0526 4.07271C10.0572 4.0924 9.07233 4.28088 8.13996 4.63011C7.33917 4.93144 6.6137 5.40374 6.0141 6.0141C5.40311 6.61314 4.93065 7.33866 4.62988 8.13972C4.28073 9.07219 4.09233 10.0571 4.07271 11.0526C4.01365 12.3322 4 12.7411 4 15.9999C4 19.2587 4.01365 19.6676 4.07271 20.9471C4.09242 21.9426 4.2809 22.9274 4.63011 23.8598C4.93087 24.6609 5.40324 25.3865 6.0141 25.9857C6.6139 26.5957 7.3392 27.068 8.13972 27.3699C9.07213 27.719 10.057 27.9075 11.0524 27.9273C12.3326 27.9854 12.7409 28 15.9996 28C19.2584 28 19.6674 27.9864 20.9469 27.9273C21.9423 27.9076 22.9272 27.7191 23.8596 27.3699C24.6569 27.0616 25.381 26.5902 25.9855 25.9857C26.5899 25.3812 27.0614 24.6571 27.3697 23.8598C27.7193 22.9276 27.9078 21.9426 27.9271 20.9471C27.9852 19.6667 27.9976 19.2587 27.9976 15.9999C27.9976 12.7411 27.984 12.3322 27.9271 11.0526C27.9074 10.0572 27.7189 9.07232 27.3697 8.13996C27.0679 7.33939 26.5956 6.61401 25.9857 6.0141C25.3867 5.40344 24.6616 4.93102 23.861 4.62988C22.9286 4.28046 21.9436 4.09206 20.9481 4.07271C19.6688 4.01459 19.2596 4 15.9999 4C12.7402 4 12.3317 4.01365 11.0517 4.07271" fill="currentColor"></path>
    <path d="M11.9999 15.9999C11.9999 15.2088 12.2345 14.4354 12.674 13.7776C13.1136 13.1198 13.7383 12.6071 14.4692 12.3044C15.2001 12.0017 16.0043 11.9224 16.7802 12.0768C17.5562 12.2311 18.2689 12.6121 18.8283 13.1715C19.3877 13.7309 19.7686 14.4436 19.923 15.2195C20.0773 15.9954 19.9981 16.7997 19.6954 17.5306C19.3926 18.2615 18.8799 18.8862 18.2221 19.3257C17.5644 19.7653 16.791 19.9998 15.9999 19.9998C14.939 19.9998 13.9216 19.5784 13.1715 18.8283C12.4213 18.0781 11.9999 17.0607 11.9999 15.9999ZM9.83735 15.9999C9.83735 17.2185 10.1987 18.4098 10.8758 19.4231C11.5528 20.4364 12.5151 21.2262 13.641 21.6926C14.7669 22.159 16.0058 22.2811 17.201 22.0434C18.3963 21.8057 19.4942 21.2189 20.356 20.3572C21.2178 19.4955 21.8047 18.3977 22.0425 17.2024C22.2804 16.0072 22.1584 14.7683 21.6922 13.6423C21.2259 12.5164 20.4362 11.554 19.423 10.8769C18.4098 10.1997 17.2185 9.8382 15.9999 9.83806C15.1907 9.83803 14.3894 9.99739 13.6418 10.307C12.8942 10.6167 12.2149 11.0706 11.6427 11.6427C11.0706 12.2149 10.6167 12.8942 10.307 13.6418C9.99739 14.3894 9.83803 15.1907 9.83806 15.9999H9.83735ZM20.9645 9.59383C20.9644 9.87863 21.0488 10.1571 21.207 10.3939C21.3651 10.6308 21.5899 10.8154 21.853 10.9245C22.1161 11.0336 22.4056 11.0622 22.685 11.0067C22.9643 10.9512 23.221 10.8142 23.4224 10.6129C23.6239 10.4115 23.7611 10.155 23.8168 9.87569C23.8724 9.59637 23.844 9.30683 23.7351 9.04367C23.6262 8.78052 23.4417 8.55556 23.2049 8.39725C22.9682 8.23895 22.6898 8.15441 22.405 8.15431C22.0232 8.1545 21.6571 8.30621 21.3871 8.57611C21.1171 8.84602 20.9653 9.21206 20.965 9.59383H20.9645ZM11.1529 25.7676C10.3919 25.7589 9.63806 25.6193 8.92442 25.3549C8.40322 25.1622 7.93166 24.8555 7.5442 24.4572C7.1453 24.0706 6.83851 23.5992 6.64656 23.0779C6.38172 22.3644 6.24179 21.6105 6.23292 20.8495C6.1748 19.5846 6.16233 19.2046 6.16233 16.0001C6.16233 12.7957 6.1748 12.4166 6.23292 11.1508C6.24248 10.3898 6.38206 9.63617 6.64562 8.9223C6.83827 8.4011 7.14496 7.92954 7.54326 7.54208C7.93004 7.14296 8.4018 6.83615 8.92348 6.64444C9.63737 6.37973 10.3915 6.24004 11.1529 6.23151C12.4178 6.17339 12.7978 6.16092 15.9999 6.16092C19.202 6.16092 19.5834 6.17339 20.8492 6.23151C21.6102 6.24106 22.3638 6.38064 23.0777 6.64421C23.5991 6.8365 24.0707 7.14324 24.4579 7.54185C24.8565 7.92905 25.1633 8.40069 25.3556 8.92207C25.6201 9.63567 25.7597 10.3895 25.7683 11.1505C25.8264 12.4164 25.8388 12.7954 25.8388 15.9999C25.8388 19.2043 25.8273 19.5834 25.7683 20.8492C25.7591 21.6102 25.6195 22.3639 25.3556 23.0777C25.1559 23.5952 24.85 24.0652 24.4577 24.4573C24.0654 24.8495 23.5953 25.1551 23.0777 25.3546C22.3641 25.6191 21.6103 25.7587 20.8492 25.7673C19.5843 25.8254 19.2043 25.8379 15.9999 25.8379C12.7954 25.8379 12.4164 25.8264 11.1529 25.7673V25.7676ZM11.0526 4.07271C10.0572 4.0924 9.07233 4.28088 8.13996 4.63011C7.33917 4.93144 6.6137 5.40374 6.0141 6.0141C5.40311 6.61314 4.93065 7.33866 4.62988 8.13972C4.28073 9.07219 4.09233 10.0571 4.07271 11.0526C4.01365 12.3322 4 12.7411 4 15.9999C4 19.2587 4.01365 19.6676 4.07271 20.9471C4.09242 21.9426 4.2809 22.9274 4.63011 23.8598C4.93087 24.6609 5.40324 25.3865 6.0141 25.9857C6.6139 26.5957 7.3392 27.068 8.13972 27.3699C9.07213 27.719 10.057 27.9075 11.0524 27.9273C12.3326 27.9854 12.7409 28 15.9996 28C19.2584 28 19.6674 27.9864 20.9469 27.9273C21.9423 27.9076 22.9272 27.7191 23.8596 27.3699C24.6569 27.0616 25.381 26.5902 25.9855 25.9857C26.5899 25.3812 27.0614 24.6571 27.3697 23.8598C27.7193 22.9276 27.9078 21.9426 27.9271 20.9471C27.9852 19.6667 27.9976 19.2587 27.9976 15.9999C27.9976 12.7411 27.984 12.3322 27.9271 11.0526C27.9074 10.0572 27.7189 9.07232 27.3697 8.13996C27.0679 7.33939 26.5956 6.61401 25.9857 6.0141C25.3867 5.40344 24.6616 4.93102 23.861 4.62988C22.9286 4.28046 21.9436 4.09206 20.9481 4.07271C19.6688 4.01459 19.2596 4 15.9999 4C12.7402 4 12.3317 4.01365 11.0517 4.07271" fill="currentColor"></path>
  </symbol></defs><use href="/assets/icons-sprite.svg#icon-social-black-instagram" xlink:href="#icon-social-black-instagram"></use></svg>