<svg xmlns="http://www.w3.org/2000/svg" width="66" height="66" fill="none"><g clip-path="url(#a)"><path fill="#FF3E00" d="M54.178 10.932C48.636 2.95 37.602.61 29.67 5.644l-13.984 8.95c-3.813 2.389-6.457 6.304-7.22 10.728-.66 3.712-.101 7.525 1.678 10.83a15.35 15.35 0 0 0-2.39 6 17.108 17.108 0 0 0 2.899 12.916c5.593 7.983 16.576 10.322 24.508 5.288l13.983-8.898c3.814-2.39 6.458-6.305 7.22-10.73.662-3.711.102-7.525-1.677-10.83a15.353 15.353 0 0 0 2.39-6 16.753 16.753 0 0 0-2.899-12.966z"/><path fill="#fff" d="M28.297 55.83a11.083 11.083 0 0 1-11.899-4.423c-1.627-2.237-2.237-5.034-1.78-7.78.102-.458.204-.864.306-1.322l.254-.813.712.508a18.546 18.546 0 0 0 5.491 2.746l.509.152-.05.509a3.402 3.402 0 0 0 .558 2.085c.814 1.169 2.238 1.728 3.61 1.372.306-.101.61-.203.865-.355l13.932-8.899c.712-.457 1.17-1.118 1.322-1.932a3.156 3.156 0 0 0-.508-2.339c-.814-1.17-2.237-1.678-3.61-1.322-.306.102-.61.203-.865.356l-5.339 3.407A9.453 9.453 0 0 1 28.958 39a11.083 11.083 0 0 1-11.898-4.424c-1.577-2.237-2.238-5.034-1.73-7.78.458-2.643 2.085-5.033 4.373-6.457l13.984-8.898c.864-.56 1.83-.966 2.847-1.272a11.083 11.083 0 0 1 11.898 4.424c1.627 2.238 2.238 5.034 1.78 7.78-.102.457-.203.864-.356 1.322l-.254.814L48.89 24a18.546 18.546 0 0 0-5.492-2.746l-.508-.152.05-.509a3.403 3.403 0 0 0-.558-2.084c-.814-1.17-2.238-1.678-3.61-1.323-.306.102-.61.204-.865.356l-13.932 8.899c-.712.457-1.17 1.118-1.322 1.932-.153.813.05 1.678.508 2.339.814 1.17 2.237 1.678 3.61 1.322.305-.102.61-.203.865-.356l5.339-3.407c.864-.56 1.83-.966 2.847-1.271a11.08 11.08 0 0 1 11.898 4.424c1.628 2.237 2.238 5.034 1.78 7.78-.458 2.643-2.085 5.033-4.373 6.457l-13.983 8.898c-.864.56-1.83.966-2.847 1.272z"/></g><defs><clipPath id="a"><path fill="#fff" d="M7.5 3h49.881v60H7.5z"/></clipPath></defs></svg>